<?xml version="1.0" encoding="UTF-8" standalone="no"?>
<!-- Created with Inkscape (http://www.inkscape.org/) -->
<svg
   xmlns:dc="http://purl.org/dc/elements/1.1/"
   xmlns:cc="http://creativecommons.org/ns#"
   xmlns:rdf="http://www.w3.org/1999/02/22-rdf-syntax-ns#"
   xmlns:svg="http://www.w3.org/2000/svg"
   xmlns="http://www.w3.org/2000/svg"
   xmlns:sodipodi="http://sodipodi.sourceforge.net/DTD/sodipodi-0.dtd"
   xmlns:inkscape="http://www.inkscape.org/namespaces/inkscape"
   version="1.0"
   width="55"
   height="55"
   id="svg2381"
   sodipodi:version="0.32"
   inkscape:version="0.46"
   sodipodi:docname="butiaoff.svg"
   inkscape:output_extension="org.inkscape.output.svg.inkscape">
  <metadata
     id="metadata3470">
    <rdf:RDF>
      <cc:Work
         rdf:about="">
        <dc:format>image/svg+xml</dc:format>
        <dc:type
           rdf:resource="http://purl.org/dc/dcmitype/StillImage" />
      </cc:Work>
    </rdf:RDF>
  </metadata>
  <sodipodi:namedview
     inkscape:window-height="727"
     inkscape:window-width="960"
     inkscape:pageshadow="2"
     inkscape:pageopacity="0.0"
     guidetolerance="10.0"
     gridtolerance="10.0"
     objecttolerance="10.0"
     borderopacity="1.0"
     bordercolor="#666666"
     pagecolor="#ffffff"
     id="base"
     showgrid="false"
     inkscape:zoom="8"
     inkscape:cx="45.75202"
     inkscape:cy="24.277237"
     inkscape:window-x="259"
     inkscape:window-y="141"
     inkscape:current-layer="layer1" />
  <defs
     id="defs2383">
    <inkscape:perspective
       sodipodi:type="inkscape:persp3d"
       inkscape:vp_x="0 : 250.18124 : 1"
       inkscape:vp_y="0 : 1000 : 0"
       inkscape:vp_z="487.29123 : 250.18124 : 1"
       inkscape:persp3d-origin="243.64561 : 166.7875 : 1"
       id="perspective3472" />
  </defs>
  <g
     transform="translate(-318.49258,-386.48691)"
     id="layer1">
    <path
       d="M 359.41706,389.22836 C 359.41706,390.49121 361.77776,391.5658 362.69891,392.16356 C 363.9683,392.98806 365.01982,393.95822 366.08574,394.99571 C 367.25184,396.12939 367.92266,397.06931 368.92733,398.35828 C 369.51617,399.11406 370.9381,401.81153 371.67792,401.81153 C 372.68104,401.81153 373.50044,401.39242 373.50044,400.35904 C 373.50044,398.9574 369.27079,394.2248 368.23971,393.22166 C 367.10594,392.11685 362.58955,387.93802 360.90827,387.93802 C 360.24097,387.93802 359.41706,388.52066 359.41706,389.22836 L 359.41706,389.22836 L 359.41706,389.22836 z M 319.15535,398.42286 C 319.15535,399.20338 319.67929,399.7132 320.48077,399.7132 C 322.0177,399.7132 322.93799,397.60936 323.7279,396.58423 C 325.25763,394.59857 327.96871,391.75406 330.32221,390.74405 C 331.29246,390.32906 333.73572,389.1143 333.73572,387.93802 C 333.73572,387.35264 333.53916,387.37187 333.40426,386.80847 C 332.42852,386.73014 333.05883,386.48691 332.41017,386.48691 C 329.70784,386.48691 319.15535,395.89715 319.15535,398.42286 L 319.15535,398.42286 L 319.15535,398.42286 z M 334.2327,405.84331 C 334.2327,407.91967 336.17008,409.10008 337.50523,410.40003 C 337.90795,410.79304 341.35728,414.12401 341.35728,414.23258 C 341.35728,415.66033 333.90123,420.09336 333.90123,422.94336 C 333.90123,424.71878 335.12942,426.00774 336.88366,426.00774 C 339.72371,426.00774 344.91204,418.74806 345.83079,418.74806 C 346.52785,418.74806 352.76262,425.71367 353.78367,425.84559 C 356.10925,426.08332 357.76032,425.06645 357.76032,422.77984 C 357.76032,420.21428 350.45723,415.8582 350.30441,414.07043 L 357.09755,407.77813 C 357.44976,407.2106 357.42887,407.27657 357.42887,406.64995 C 357.42887,404.96386 356.66845,403.10049 354.61224,403.10049 C 351.42494,403.10049 348.17583,408.50919 345.83079,410.03726 C 343.74044,408.67546 339.98871,403.10049 337.38078,403.10049 C 335.80038,403.10049 334.2327,404.17234 334.2327,405.84331 L 334.2327,405.84331 L 334.2327,405.84331 z M 363.44141,439.11998 C 364.76738,438.1828 365.60908,437.4806 366.74851,436.37165 C 367.60912,435.53341 372.17503,430.82555 372.17503,429.87875 C 372.17503,428.71484 371.80293,428.10471 370.51802,428.10471 C 369.67082,428.10471 368.2242,430.63866 367.57892,431.37247 C 365.58791,433.63707 363.70923,435.53891 361.14024,437.20302 C 360.32014,437.73344 357.76032,438.85476 357.76032,439.87988 C 357.76032,440.76621 358.18732,441.49315 359.2514,441.49315 C 360.3358,441.49315 362.50883,439.77957 363.44141,439.11998 L 363.44141,439.11998 L 363.44141,439.11998 z M 327.2739,414.39335 C 327.2739,409.45736 329.69416,404.83468 332.28557,402.33509 C 334.25979,400.43051 334.71372,400.02513 337.27198,398.63997 C 342.88307,395.60446 349.40134,396.29704 355.01934,398.9945 C 358.28482,400.5638 360.73584,403.57046 362.42925,406.62109 C 366.21782,413.44379 364.10502,422.12163 358.71336,427.419 C 355.11543,430.95472 350.76555,432.24506 345.99955,432.50202 C 340.72118,431.84792 336.77826,431.16771 332.86594,427.33793 C 329.32234,423.86955 327.2739,419.29085 327.2739,414.39335 L 327.2739,414.39335 L 327.2739,414.39335 z M 328.22679,430.88738 C 329.90384,432.51989 332.38618,434.59212 334.61156,435.6406 C 336.31346,436.44173 341.04658,438.10584 343.34547,438.10584 L 346.65936,438.10584 C 359.28032,438.10584 370.1867,427.29808 370.1867,415.03783 L 370.1867,413.103 C 370.1867,409.49996 368.73458,406.72003 367.72144,404.21082 C 366.76954,401.85413 364.58225,399.33805 362.85538,397.65745 C 359.45924,394.34985 353.35527,390.84162 346.65936,390.84162 C 339.147,390.84162 331.67246,393.63254 326.91042,399.52081 C 324.02774,403.08538 321.47485,408.10106 321.47485,414.39335 C 321.47485,420.53447 323.72536,426.50519 328.22679,430.88738 L 328.22679,430.88738 L 328.22679,430.88738 z M 332.90728,439.87988 C 332.90728,437.93682 330.78278,437.59465 329.49392,436.75092 C 327.04277,435.14728 324.65144,433.07917 322.89707,430.75272 C 322.18703,429.81004 321.07383,427.621 319.81799,427.621 C 318.68872,427.621 318.49258,428.55956 318.49258,429.39505 C 318.49258,430.37345 323.18154,435.50319 324.12583,436.16965 C 325.39761,437.06835 329.8831,441.00944 331.58173,441.00944 C 332.08153,441.00944 332.90728,440.35122 332.90728,439.87988 L 332.90728,439.87988 L 332.90728,439.87988 z"
       id="path32"
       style="fill:#85c229;stroke:none" />
    <path
       style="opacity:1;fill:#ffffff;fill-opacity:1;fill-rule:nonzero;stroke:none;stroke-width:1;stroke-linecap:butt;stroke-linejoin:miter;marker:none;marker-start:none;marker-mid:none;marker-end:none;stroke-miterlimit:4;stroke-dasharray:none;stroke-dashoffset:0;stroke-opacity:1;visibility:visible;display:inline;overflow:visible;enable-background:accumulate"
       d="M 23.955081,51.494108 C 22.298297,51.284143 19.218686,50.372636 16.882531,49.400766 C 14.700735,48.493113 12.093895,46.625801 9.6579084,44.225684 C 6.2782347,40.895778 4.0348297,36.351092 3.2824372,31.310263 C 3.0658284,29.859054 3.0674784,26.001267 3.2852959,24.622763 C 4.3647947,17.790894 8.4037059,11.640328 14.069208,8.2007194 C 19.099251,5.1469057 25.727667,3.8018169 31.36452,4.6910182 C 37.644241,5.6816319 43.757081,9.5785782 47.629956,15.060263 C 48.693236,16.565231 49.278537,17.774143 50.443903,20.872319 C 51.444783,23.533199 51.760121,25.641716 51.631056,28.810263 C 51.381321,34.941362 49.125246,40.064507 44.747005,44.442748 C 40.973178,48.216574 36.513701,50.508399 31.38555,51.309501 C 29.911113,51.539832 25.232982,51.656059 23.95508,51.494109 L 23.955081,51.494108 z M 31.11053,45.606939 C 36.806685,44.490058 41.152325,41.236812 43.780761,36.121714 C 45.213028,33.334426 45.847846,30.742303 45.846855,27.685263 C 45.84567,24.034494 44.88982,21.179602 42.55202,17.844407 C 41.579863,16.457489 39.425291,14.249517 38.313793,13.501133 C 36.50963,12.286371 33.336552,11.052851 30.55202,10.483778 C 28.647572,10.094568 25.19625,10.059924 23.555012,10.413543 C 19.935148,11.193477 16.90065,12.810869 14.26268,15.366377 C 12.582323,16.994206 11.529661,18.417821 10.607031,20.310263 C 9.3432809,22.902387 8.7930972,25.189837 8.7877209,27.874254 C 8.7775772,32.937413 10.799193,37.517409 14.631286,41.112931 C 17.569227,43.869501 20.453597,45.077713 25.940167,45.850028 C 27.699177,46.097634 28.894622,46.041431 31.110526,45.606943 L 31.11053,45.606939 z"
       id="path2433"
       transform="translate(318.49258,386.48691)" />
    <path
       style="opacity:1;fill:#ffffff;fill-opacity:1;fill-rule:nonzero;stroke:none;stroke-width:1;stroke-linecap:butt;stroke-linejoin:miter;marker:none;marker-start:none;marker-mid:none;marker-end:none;stroke-miterlimit:4;stroke-dasharray:none;stroke-dashoffset:0;stroke-opacity:1;visibility:visible;display:inline;overflow:visible;enable-background:accumulate"
       d="M 17.61476,39.361091 C 15.907002,38.943148 14.999835,36.926409 15.802321,35.331832 C 16.220168,34.501549 17.529021,33.099072 19.609451,31.252369 C 21.643857,29.446519 22.762352,28.319666 22.876087,27.961317 C 22.957453,27.704956 21.577376,26.272599 17.792611,22.685263 C 16.201861,21.177496 15.86452,20.594349 15.86452,19.352281 C 15.86452,18.626286 15.913307,18.449883 16.244362,17.978848 C 16.772306,17.227677 17.77641,16.724169 18.765035,16.714857 C 20.096817,16.702311 20.687647,17.122974 24.021225,20.457192 C 25.619913,22.056187 27.048781,23.429132 27.196488,23.508182 C 27.443652,23.640463 27.670147,23.443569 30.039783,21.036482 C 32.678036,18.356533 33.313723,17.786709 34.312975,17.206036 C 36.01946,16.214382 37.827626,16.716568 38.543662,18.381041 C 38.884812,19.174074 38.959488,20.679191 38.67702,21.069043 C 38.573895,21.211371 36.984832,22.722581 35.14577,24.427284 C 33.306707,26.131989 31.80202,27.613466 31.80202,27.719458 C 31.80202,28.114549 32.88013,29.284582 34.996053,31.185821 C 37.481018,33.418657 38.363202,34.348844 38.857941,35.257843 C 39.151332,35.796906 39.197345,36.007181 39.153755,36.609804 C 39.046793,38.088492 38.195508,38.991637 36.66542,39.249719 C 35.992038,39.363298 35.648546,39.366353 35.29978,39.261861 C 34.7935,39.110173 33.768396,38.203261 30.55202,35.061484 C 28.100282,32.666612 27.614196,32.247763 27.286611,32.247763 C 27.107727,32.247763 26.307561,32.982948 24.818221,34.515703 C 20.60181,38.855021 19.2533,39.762096 17.61476,39.361092 L 17.61476,39.361091 z"
       id="path2435"
       transform="translate(318.49258,386.48691)" />
    <path
       style="opacity:1;fill:#ffffff;fill-opacity:1;fill-rule:nonzero;stroke:none;stroke-width:1;stroke-linecap:butt;stroke-linejoin:miter;marker:none;marker-start:none;marker-mid:none;marker-end:none;stroke-miterlimit:4;stroke-dasharray:none;stroke-dashoffset:0;stroke-opacity:1;visibility:visible;display:inline;overflow:visible;enable-background:accumulate"
       d="M 12.174173,54.207793 C 10.647518,53.579671 6.0453659,50.107024 4.2004847,48.191089 C 1.7840934,45.681629 0.05201965,43.403166 0.05201965,42.733966 C 0.05201965,42.222213 0.3560684,41.544531 0.65821965,41.382824 C 1.0497647,41.173278 1.6695534,41.222759 2.1169934,41.499292 C 2.5093347,41.741771 2.9649997,42.287812 3.9933284,43.747763 C 5.9082597,46.466456 9.4074522,49.544303 12.148465,50.920922 C 13.746487,51.723498 14.30202,52.336333 14.30202,53.296612 C 14.30202,53.749226 13.961353,54.147059 13.387632,54.364437 C 12.937621,54.534938 12.983786,54.540899 12.174173,54.207794 L 12.174173,54.207793 z"
       id="path2437"
       transform="translate(318.49258,386.48691)" />
    <path
       style="opacity:1;fill:#ffffff;fill-opacity:1;fill-rule:nonzero;stroke:none;stroke-width:1;stroke-linecap:butt;stroke-linejoin:miter;marker:none;marker-start:none;marker-mid:none;marker-end:none;stroke-miterlimit:4;stroke-dasharray:none;stroke-dashoffset:0;stroke-opacity:1;visibility:visible;display:inline;overflow:visible;enable-background:accumulate"
       d="M 1.2590584,12.981196 C 0.91071215,12.778708 0.6667409,12.094454 0.7898434,11.665218 C 1.1104247,10.547418 2.2060909,9.1044969 4.3776972,6.9402519 C 8.0929559,3.2375869 12.359012,0.12855941 13.730645,0.12398441 C 14.453495,0.12157316 14.921612,0.38820941 15.071223,0.88756691 C 15.411366,2.0228619 14.62565,2.8292132 11.815775,4.2285169 C 11.238965,4.5157657 10.395216,5.0155807 9.9407747,5.3392169 C 8.3109172,6.4999444 5.7699022,9.1707882 4.5572847,10.997763 C 3.9160247,11.963913 3.2418297,12.701536 2.7769772,12.945566 C 2.3809259,13.153477 1.5874784,13.172103 1.2590572,12.981197 L 1.2590584,12.981196 z"
       id="path2439"
       transform="translate(318.49258,386.48691)" />
    <path
       style="opacity:1;fill:#ffffff;fill-opacity:1;fill-rule:nonzero;stroke:none;stroke-width:1;stroke-linecap:butt;stroke-linejoin:miter;marker:none;marker-start:none;marker-mid:none;marker-end:none;stroke-miterlimit:4;stroke-dasharray:none;stroke-dashoffset:0;stroke-opacity:1;visibility:visible;display:inline;overflow:visible;enable-background:accumulate"
       d="M 52.388911,14.591513 C 52.082315,14.230576 51.523526,13.456084 51.147155,12.870421 C 49.314695,10.018976 46.625427,7.2430882 44.127537,5.6247182 C 41.48092,3.9099869 41.046248,3.5078882 41.024828,2.7545019 C 41.002038,1.9529357 42.082693,1.3234832 42.97567,1.6181919 C 44.193568,2.0201369 47.589071,4.6716207 49.885452,7.0139182 C 52.732196,9.9175832 54.92702,12.926754 54.92702,13.926067 C 54.92702,14.657736 54.236577,15.247763 53.380392,15.247763 C 53.01091,15.247763 52.863442,15.150158 52.388908,14.591513 L 52.388911,14.591513 z"
       id="path2441"
       transform="translate(318.49258,386.48691)" />
    <path
       style="opacity:1;fill:#ffffff;fill-opacity:1;fill-rule:nonzero;stroke:none;stroke-width:1;stroke-linecap:butt;stroke-linejoin:miter;marker:none;marker-start:none;marker-mid:none;marker-end:none;stroke-miterlimit:4;stroke-dasharray:none;stroke-dashoffset:0;stroke-opacity:1;visibility:visible;display:inline;overflow:visible;enable-background:accumulate"
       d="M 40.198542,54.856673 C 39.872392,54.761723 39.728363,54.613032 39.531532,54.168061 C 39.368815,53.800219 39.309567,53.484707 39.363128,53.271301 C 39.478306,52.812393 40.228477,52.157908 41.383356,51.508758 C 44.396857,49.814889 47.617288,46.945862 49.744155,44.060263 C 51.22957,42.044939 51.748857,41.575539 52.36452,41.691619 C 53.193863,41.847988 53.433732,42.117919 53.59863,43.080406 C 53.652521,43.394952 53.568972,43.624417 53.18903,44.205406 C 52.14239,45.805876 48.223087,50.003521 46.477055,51.394061 C 45.039212,52.539154 43.036842,53.943047 42.17702,54.408874 C 41.231881,54.920924 40.774712,55.024397 40.198545,54.856669 L 40.198542,54.856673 z"
       id="path2443"
       transform="translate(318.49258,386.48691)" />
  </g>
</svg>
