<?xml version="1.0" encoding="UTF-8" standalone="no"?>
<!DOCTYPE svg PUBLIC "-//W3C//DTD SVG 1.0//EN" "http://www.w3.org/TR/2001/PR-SVG-20010719/DTD/svg10.dtd">
<svg width="34cm" height="28cm" viewBox="108 83 665 549" xmlns="http://www.w3.org/2000/svg" xmlns:xlink="http://www.w3.org/1999/xlink">
  <text style="fill: #000000;text-anchor:start;font-size:12.8;font-family:sanserif;font-style:normal;font-weight:normal" x="395" y="161">
    <tspan x="395" y="161"></tspan>
  </text>
  <g>
    <polygon style="fill: #ffffff" points="109,141 119,131 360,131 360,290.5 350,300.5 109,300.5 109,141 "/>
    <polygon style="fill: none; fill-opacity:0; stroke-width: 2; stroke: #000000" points="109,141 119,131 360,131 360,290.5 350,300.5 109,300.5 109,141 "/>
    <line style="fill: none; fill-opacity:0; stroke-width: 2; stroke: #000000" x1="109" y1="141" x2="350" y2="141"/>
    <line style="fill: none; fill-opacity:0; stroke-width: 2; stroke: #000000" x1="350" y1="141" x2="360" y2="131"/>
    <line style="fill: none; fill-opacity:0; stroke-width: 2; stroke: #000000" x1="350" y1="141" x2="350" y2="300.5"/>
    <text style="fill: #000000;text-anchor:start;font-size:12.8;font-family:sanserif;font-style:normal;font-weight:normal" x="119" y="162.9">
      <tspan x="119" y="162.9">Placa de E/S</tspan>
    </text>
    <line style="fill: none; fill-opacity:0; stroke-width: 1; stroke: #000000" x1="119" y1="165.95" x2="197.7" y2="165.95"/>
  </g>
  <g>
    <polygon style="fill: #ffffff" points="444,94 454,84 735,84 735,281 725,291 444,291 444,94 "/>
    <polygon style="fill: none; fill-opacity:0; stroke-width: 2; stroke: #000000" points="444,94 454,84 735,84 735,281 725,291 444,291 444,94 "/>
    <line style="fill: none; fill-opacity:0; stroke-width: 2; stroke: #000000" x1="444" y1="94" x2="725" y2="94"/>
    <line style="fill: none; fill-opacity:0; stroke-width: 2; stroke: #000000" x1="725" y1="94" x2="735" y2="84"/>
    <line style="fill: none; fill-opacity:0; stroke-width: 2; stroke: #000000" x1="725" y1="94" x2="725" y2="291"/>
    <text style="fill: #000000;text-anchor:start;font-size:12.8;font-family:sanserif;font-style:normal;font-weight:normal" x="454" y="115.9">
      <tspan x="454" y="115.9">Computadora XO</tspan>
    </text>
    <line style="fill: none; fill-opacity:0; stroke-width: 1; stroke: #000000" x1="454" y1="118.95" x2="563.55" y2="118.95"/>
  </g>
  <g>
    <rect style="fill: #ffffff" x="478" y="210" width="173.45" height="70"/>
    <rect style="fill: none; fill-opacity:0; stroke-width: 2; stroke: #000000" x="478" y="210" width="173.45" height="70"/>
    <rect style="fill: #ffffff" x="458" y="224" width="40" height="14"/>
    <rect style="fill: none; fill-opacity:0; stroke-width: 2; stroke: #000000" x="458" y="224" width="40" height="14"/>
    <rect style="fill: #ffffff" x="458" y="252" width="40" height="14"/>
    <rect style="fill: none; fill-opacity:0; stroke-width: 2; stroke: #000000" x="458" y="252" width="40" height="14"/>
    <text style="fill: #000000;text-anchor:start;font-size:12.8;font-family:sanserif;font-style:normal;font-weight:normal" x="506" y="235.9">
      <tspan x="506" y="235.9">Módulo Bobot-server </tspan>
      <tspan x="506" y="251.9">      (capa3 - Lua)</tspan>
    </text>
  </g>
  <g>
    <rect style="fill: #ffffff" x="184" y="187.5" width="143.65" height="70"/>
    <rect style="fill: none; fill-opacity:0; stroke-width: 2; stroke: #000000" x="184" y="187.5" width="143.65" height="70"/>
    <rect style="fill: #ffffff" x="164" y="201.5" width="40" height="14"/>
    <rect style="fill: none; fill-opacity:0; stroke-width: 2; stroke: #000000" x="164" y="201.5" width="40" height="14"/>
    <rect style="fill: #ffffff" x="164" y="229.5" width="40" height="14"/>
    <rect style="fill: none; fill-opacity:0; stroke-width: 2; stroke: #000000" x="164" y="229.5" width="40" height="14"/>
    <text style="fill: #000000;text-anchor:start;font-size:12.8;font-family:sanserif;font-style:normal;font-weight:normal" x="212" y="213.4">
      <tspan x="212" y="213.4">Firmware(capa1)</tspan>
    </text>
  </g>
  <g>
    <polygon style="fill: #ffffff" points="533,395.5 543,385.5 772,385.5 772,618.25 762,628.25 533,628.25 533,395.5 "/>
    <polygon style="fill: none; fill-opacity:0; stroke-width: 2; stroke: #000000" points="533,395.5 543,385.5 772,385.5 772,618.25 762,628.25 533,628.25 533,395.5 "/>
    <line style="fill: none; fill-opacity:0; stroke-width: 2; stroke: #000000" x1="533" y1="395.5" x2="762" y2="395.5"/>
    <line style="fill: none; fill-opacity:0; stroke-width: 2; stroke: #000000" x1="762" y1="395.5" x2="772" y2="385.5"/>
    <line style="fill: none; fill-opacity:0; stroke-width: 2; stroke: #000000" x1="762" y1="395.5" x2="762" y2="628.25"/>
    <text style="fill: #000000;text-anchor:start;font-size:12.8;font-family:sanserif;font-style:normal;font-weight:normal" x="543" y="417.4">
      <tspan x="543" y="417.4">Dispositivo móvil</tspan>
    </text>
    <line style="fill: none; fill-opacity:0; stroke-width: 1; stroke: #000000" x1="543" y1="420.45" x2="652.3" y2="420.45"/>
  </g>
  <g>
    <rect style="fill: #ffffff" x="558" y="441.5" width="198.55" height="70"/>
    <rect style="fill: none; fill-opacity:0; stroke-width: 2; stroke: #000000" x="558" y="441.5" width="198.55" height="70"/>
    <rect style="fill: #ffffff" x="538" y="455.5" width="40" height="14"/>
    <rect style="fill: none; fill-opacity:0; stroke-width: 2; stroke: #000000" x="538" y="455.5" width="40" height="14"/>
    <rect style="fill: #ffffff" x="538" y="483.5" width="40" height="14"/>
    <rect style="fill: none; fill-opacity:0; stroke-width: 2; stroke: #000000" x="538" y="483.5" width="40" height="14"/>
    <text style="fill: #000000;text-anchor:start;font-size:12.8;font-family:sanserif;font-style:normal;font-weight:normal" x="586" y="467.4">
      <tspan x="586" y="467.4">Módulo ButiaAPI (Python)</tspan>
    </text>
  </g>
  <g>
    <rect style="fill: #ffffff" x="566" y="547.5" width="189.95" height="70"/>
    <rect style="fill: none; fill-opacity:0; stroke-width: 2; stroke: #000000" x="566" y="547.5" width="189.95" height="70"/>
    <rect style="fill: #ffffff" x="546" y="561.5" width="40" height="14"/>
    <rect style="fill: none; fill-opacity:0; stroke-width: 2; stroke: #000000" x="546" y="561.5" width="40" height="14"/>
    <rect style="fill: #ffffff" x="546" y="589.5" width="40" height="14"/>
    <rect style="fill: none; fill-opacity:0; stroke-width: 2; stroke: #000000" x="546" y="589.5" width="40" height="14"/>
    <text style="fill: #000000;text-anchor:start;font-size:12.8;font-family:sanserif;font-style:normal;font-weight:normal" x="594" y="573.4">
      <tspan x="594" y="573.4">Módulo Cliente (Python)</tspan>
    </text>
  </g>
  <g>
    <polygon style="fill: #ffffff" points="266,397 276,387 522,387 522,620 512,630 266,630 266,397 "/>
    <polygon style="fill: none; fill-opacity:0; stroke-width: 2; stroke: #000000" points="266,397 276,387 522,387 522,620 512,630 266,630 266,397 "/>
    <line style="fill: none; fill-opacity:0; stroke-width: 2; stroke: #000000" x1="266" y1="397" x2="512" y2="397"/>
    <line style="fill: none; fill-opacity:0; stroke-width: 2; stroke: #000000" x1="512" y1="397" x2="522" y2="387"/>
    <line style="fill: none; fill-opacity:0; stroke-width: 2; stroke: #000000" x1="512" y1="397" x2="512" y2="630"/>
    <text style="fill: #000000;text-anchor:start;font-size:12.8;font-family:sanserif;font-style:normal;font-weight:normal" x="276" y="418.9">
      <tspan x="276" y="418.9">PC</tspan>
    </text>
    <line style="fill: none; fill-opacity:0; stroke-width: 1; stroke: #000000" x1="276" y1="421.95" x2="292.65" y2="421.95"/>
  </g>
  <g>
    <rect style="fill: #ffffff" x="297.9" y="432" width="198.55" height="70"/>
    <rect style="fill: none; fill-opacity:0; stroke-width: 2; stroke: #000000" x="297.9" y="432" width="198.55" height="70"/>
    <rect style="fill: #ffffff" x="277.9" y="446" width="40" height="14"/>
    <rect style="fill: none; fill-opacity:0; stroke-width: 2; stroke: #000000" x="277.9" y="446" width="40" height="14"/>
    <rect style="fill: #ffffff" x="277.9" y="474" width="40" height="14"/>
    <rect style="fill: none; fill-opacity:0; stroke-width: 2; stroke: #000000" x="277.9" y="474" width="40" height="14"/>
    <text style="fill: #000000;text-anchor:start;font-size:12.8;font-family:sanserif;font-style:normal;font-weight:normal" x="325.9" y="457.9">
      <tspan x="325.9" y="457.9">Módulo ButiaAPI (Python)</tspan>
    </text>
  </g>
  <g>
    <rect style="fill: #ffffff" x="292.9" y="547" width="211.6" height="70"/>
    <rect style="fill: none; fill-opacity:0; stroke-width: 2; stroke: #000000" x="292.9" y="547" width="211.6" height="70"/>
    <rect style="fill: #ffffff" x="272.9" y="561" width="40" height="14"/>
    <rect style="fill: none; fill-opacity:0; stroke-width: 2; stroke: #000000" x="272.9" y="561" width="40" height="14"/>
    <rect style="fill: #ffffff" x="272.9" y="589" width="40" height="14"/>
    <rect style="fill: none; fill-opacity:0; stroke-width: 2; stroke: #000000" x="272.9" y="589" width="40" height="14"/>
    <text style="fill: #000000;text-anchor:start;font-size:12.8;font-family:sanserif;font-style:normal;font-weight:normal" x="320.9" y="572.9">
      <tspan x="320.9" y="572.9">Módulo Cliente (Tortugarte)</tspan>
    </text>
  </g>
  <line style="fill: none; fill-opacity:0; stroke-width: 2; stroke: #000000" x1="444" y1="192.5" x2="350" y2="220.75"/>
  <line style="fill: none; fill-opacity:0; stroke-width: 2; stroke: #000000" x1="647.5" y1="395.5" x2="584.5" y2="291"/>
  <line style="fill: none; fill-opacity:0; stroke-width: 2; stroke: #000000" x1="389" y1="397" x2="444" y2="291"/>
  <text style="fill: #000000;text-anchor:start;font-size:12.8;font-family:sanserif;font-style:normal;font-weight:normal" x="584.5" y="192.5">
    <tspan x="584.5" y="192.5"></tspan>
  </text>
  <text style="fill: #000000;text-anchor:start;font-size:12.8;font-family:sanserif;font-style:normal;font-weight:normal" x="646" y="378">
    <tspan x="646" y="378">*</tspan>
  </text>
  <text style="fill: #000000;text-anchor:start;font-size:12.8;font-family:sanserif;font-style:normal;font-weight:normal" x="592" y="303">
    <tspan x="592" y="303">1</tspan>
  </text>
  <text style="fill: #000000;text-anchor:start;font-size:12.8;font-family:sanserif;font-style:normal;font-weight:normal" x="455" y="303">
    <tspan x="455" y="303">1</tspan>
  </text>
  <text style="fill: #000000;text-anchor:start;font-size:12.8;font-family:sanserif;font-style:normal;font-weight:normal" x="412" y="381">
    <tspan x="412" y="381">*</tspan>
  </text>
  <text style="fill: #000000;text-anchor:start;font-size:12.8;font-family:sanserif;font-style:normal;font-weight:normal" x="375" y="335">
    <tspan x="375" y="335"> Socket</tspan>
  </text>
  <text style="fill: #000000;text-anchor:start;font-size:12.8;font-family:sanserif;font-style:normal;font-weight:normal" x="556" y="342">
    <tspan x="556" y="342">Socket</tspan>
  </text>
  <text style="fill: #000000;text-anchor:start;font-size:12.8;font-family:sanserif;font-style:normal;font-weight:normal" x="424" y="217">
    <tspan x="424" y="217">1</tspan>
  </text>
  <text style="fill: #000000;text-anchor:start;font-size:12.8;font-family:sanserif;font-style:normal;font-weight:normal" x="374.9" y="214.1">
    <tspan x="374.9" y="214.1">1</tspan>
  </text>
  <text style="fill: #000000;text-anchor:start;font-size:12.8;font-family:sanserif;font-style:normal;font-weight:normal" x="384.9" y="237.1">
    <tspan x="384.9" y="237.1"> Serial</tspan>
  </text>
  <g>
    <line style="fill: none; fill-opacity:0; stroke-width: 2; stroke-dasharray: 4; stroke: #000000" x1="407.674" y1="547" x2="401.538" y2="511.593"/>
    <polygon style="fill: #000000" points="400.258,504.203 406.892,513.203 401.538,511.593 397.039,514.91 "/>
    <polygon style="fill: none; fill-opacity:0; stroke-width: 2; stroke: #000000" points="400.258,504.203 406.892,513.203 401.538,511.593 397.039,514.91 "/>
  </g>
  <g>
    <line style="fill: none; fill-opacity:0; stroke-width: 2; stroke-dasharray: 4; stroke: #000000" x1="660.974" y1="547.5" x2="658.269" y2="521.185"/>
    <polygon style="fill: #000000" points="657.503,513.724 663.499,523.161 658.269,521.185 653.551,524.183 "/>
    <polygon style="fill: none; fill-opacity:0; stroke-width: 2; stroke: #000000" points="657.503,513.724 663.499,523.161 658.269,521.185 653.551,524.183 "/>
  </g>
  <g>
    <line style="fill: none; fill-opacity:0; stroke-width: 2; stroke-dasharray: 4; stroke: #000000" x1="496.45" y1="432" x2="479.173" y2="289.665"/>
    <polygon style="fill: #000000" points="478.269,282.22 484.438,291.544 479.173,289.665 474.511,292.749 "/>
    <polygon style="fill: none; fill-opacity:0; stroke-width: 2; stroke: #000000" points="478.269,282.22 484.438,291.544 479.173,289.665 474.511,292.749 "/>
  </g>
  <g>
    <line style="fill: none; fill-opacity:0; stroke-width: 2; stroke-dasharray: 4; stroke: #000000" x1="756.55" y1="441.5" x2="656.76" y2="288.16"/>
    <polygon style="fill: #000000" points="652.67,281.874 662.315,287.528 656.76,288.16 653.933,292.983 "/>
    <polygon style="fill: none; fill-opacity:0; stroke-width: 2; stroke: #000000" points="652.67,281.874 662.315,287.528 656.76,288.16 653.933,292.983 "/>
  </g>
  <g>
    <line style="fill: none; fill-opacity:0; stroke-width: 2; stroke-dasharray: 4; stroke: #000000" x1="458" y1="259" x2="337.385" y2="257.612"/>
    <polygon style="fill: #000000" points="329.886,257.526 339.943,252.641 337.385,257.612 339.828,262.64 "/>
    <polygon style="fill: none; fill-opacity:0; stroke-width: 2; stroke: #000000" points="329.886,257.526 339.943,252.641 337.385,257.612 339.828,262.64 "/>
  </g>
  <text style="fill: #000000;text-anchor:start;font-size:12.7998;font-family:sanserif;font-style:normal;font-weight:normal" x="229.5" y="220.75">
    <tspan x="229.5" y="220.75"></tspan>
  </text>
  <text style="fill: #000000;text-anchor:start;font-size:12.7998;font-family:sanserif;font-style:normal;font-weight:normal" x="584.5" y="192.5">
    <tspan x="584.5" y="192.5"></tspan>
  </text>
  <g>
    <rect style="fill: #ffffff" x="487.5" y="133.3" width="150.55" height="70"/>
    <rect style="fill: none; fill-opacity:0; stroke-width: 2; stroke: #000000" x="487.5" y="133.3" width="150.55" height="70"/>
    <rect style="fill: #ffffff" x="467.5" y="147.3" width="40" height="14"/>
    <rect style="fill: none; fill-opacity:0; stroke-width: 2; stroke: #000000" x="467.5" y="147.3" width="40" height="14"/>
    <rect style="fill: #ffffff" x="467.5" y="175.3" width="40" height="14"/>
    <rect style="fill: none; fill-opacity:0; stroke-width: 2; stroke: #000000" x="467.5" y="175.3" width="40" height="14"/>
    <text style="fill: #000000;text-anchor:start;font-size:12.8;font-family:sanserif;font-style:normal;font-weight:normal" x="515.5" y="159.2">
      <tspan x="515.5" y="159.2">DSI  (capa2 - Lua)</tspan>
    </text>
  </g>
  <text style="fill: #000000;text-anchor:start;font-size:12.8;font-family:sanserif;font-style:normal;font-weight:normal" x="732.5" y="120.3">
    <tspan x="732.5" y="120.3"></tspan>
  </text>
  <text style="fill: #000000;text-anchor:start;font-size:12.7998;font-family:sanserif;font-style:normal;font-weight:normal" x="531" y="155">
    <tspan x="531" y="155"></tspan>
  </text>
  <text style="fill: #000000;text-anchor:start;font-size:12.7998;font-family:sanserif;font-style:normal;font-weight:normal" x="584.5" y="192.5">
    <tspan x="584.5" y="192.5"></tspan>
  </text>
  <text style="fill: #000000;text-anchor:start;font-size:12.7998;font-family:sanserif;font-style:normal;font-weight:normal" x="584.5" y="192.5">
    <tspan x="584.5" y="192.5"></tspan>
  </text>
  <text style="fill: #000000;text-anchor:start;font-size:12.7998;font-family:sanserif;font-style:normal;font-weight:normal" x="584.5" y="192.5">
    <tspan x="584.5" y="192.5"></tspan>
  </text>
  <text style="fill: #000000;text-anchor:start;font-size:12.7998;font-family:sanserif;font-style:normal;font-weight:normal" x="584.5" y="192.5">
    <tspan x="584.5" y="192.5"></tspan>
  </text>
</svg>
