<?xml version="1.0" encoding="UTF-8" standalone="no"?>
<!-- Created with Inkscape (http://www.inkscape.org/) -->

<svg
   xmlns:dc="http://purl.org/dc/elements/1.1/"
   xmlns:cc="http://creativecommons.org/ns#"
   xmlns:rdf="http://www.w3.org/1999/02/22-rdf-syntax-ns#"
   xmlns:svg="http://www.w3.org/2000/svg"
   xmlns="http://www.w3.org/2000/svg"
   xmlns:sodipodi="http://sodipodi.sourceforge.net/DTD/sodipodi-0.dtd"
   xmlns:inkscape="http://www.inkscape.org/namespaces/inkscape"
   version="1.0"
   width="55"
   height="55"
   id="svg2381"
   sodipodi:version="0.32"
   inkscape:version="0.48.4 r9939"
   sodipodi:docname="NewPatterns.svg"
   inkscape:output_extension="org.inkscape.output.svg.inkscape">
  <metadata
     id="metadata3470">
    <rdf:RDF>
      <cc:Work
         rdf:about="">
        <dc:format>image/svg+xml</dc:format>
        <dc:type
           rdf:resource="http://purl.org/dc/dcmitype/StillImage" />
      </cc:Work>
    </rdf:RDF>
  </metadata>
  <sodipodi:namedview
     inkscape:window-height="744"
     inkscape:window-width="1366"
     inkscape:pageshadow="2"
     inkscape:pageopacity="0.0"
     guidetolerance="10.0"
     gridtolerance="10.0"
     objecttolerance="10.0"
     borderopacity="1.0"
     bordercolor="#666666"
     pagecolor="#ffffff"
     id="base"
     showgrid="false"
     inkscape:zoom="5.9911229"
     inkscape:cx="81.796299"
     inkscape:cy="30.181502"
     inkscape:window-x="0"
     inkscape:window-y="24"
     inkscape:current-layer="svg2381"
     inkscape:window-maximized="1" />
  <defs
     id="defs2383">
    <inkscape:perspective
       sodipodi:type="inkscape:persp3d"
       inkscape:vp_x="0 : 250.18124 : 1"
       inkscape:vp_y="0 : 1000 : 0"
       inkscape:vp_z="487.29123 : 250.18124 : 1"
       inkscape:persp3d-origin="243.64561 : 166.7875 : 1"
       id="perspective3472" />
    <inkscape:perspective
       id="perspective2505"
       inkscape:persp3d-origin="27.5 : 18.333333 : 1"
       inkscape:vp_z="55 : 27.5 : 1"
       inkscape:vp_y="0 : 1000 : 0"
       inkscape:vp_x="0 : 27.5 : 1"
       sodipodi:type="inkscape:persp3d" />
    <inkscape:perspective
       id="perspective2841"
       inkscape:persp3d-origin="0.5 : 0.33333333 : 1"
       inkscape:vp_z="1 : 0.5 : 1"
       inkscape:vp_y="0 : 1000 : 0"
       inkscape:vp_x="0 : 0.5 : 1"
       sodipodi:type="inkscape:persp3d" />
  </defs>
  <g
     inkscape:groupmode="layer"
     id="layer3"
     inkscape:label="fondo" />
  <path
     inkscape:connector-curvature="0"
     style="fill:#000000;fill-opacity:0;fill-rule:evenodd;stroke:#ffffff;stroke-width:0.11823711px;stroke-linecap:butt;stroke-linejoin:miter;stroke-opacity:1"
     d="M 0.57142739,26.493998 26.308635,0.79154882 c 0.387457,-0.36614108 0.767155,-0.67461334 1.197945,-0.72905783 0.412078,0.06068942 0.873577,0.34200007 1.236084,0.72905783 L 54.631861,26.714937 c 0.150491,0.249712 0.24499,0.479768 0.30581,0.84399 -0.07,0.267985 -0.08674,0.510475 -0.318466,0.866971 L 28.608569,54.379791 c -0.214529,0.278022 -0.662633,0.505092 -1.050584,0.55788 -0.289047,-0.05321 -0.447701,-0.07292 -0.945368,-0.432159 L 0.56695184,28.48244 C 0.28233073,28.264747 0.21114186,27.912061 0.062329,27.558766 0.14563948,27.031324 0.35107574,26.747773 0.57142739,26.493998 z"
     id="path1899"
     sodipodi:nodetypes="ccccccccccccc" />
  <path
     inkscape:connector-curvature="0"
     style="fill:#ffffff;fill-rule:evenodd;stroke:#000000;stroke-width:0.11823711px;stroke-linecap:butt;stroke-linejoin:miter;stroke-opacity:1"
     d="M 53.818811,27.533296 27.545696,53.75335 1.2725817,27.520278 27.558736,1.287206 53.818811,27.533296 z"
     id="path1919"
     sodipodi:nodetypes="ccccc" />
  <path
     inkscape:connector-curvature="0"
     style="fill:#282828;fill-opacity:1;fill-rule:evenodd;stroke:#000000;stroke-width:0.11823711px;stroke-linecap:butt;stroke-linejoin:miter;stroke-opacity:1"
     d="M 4.1811138,26.199415 26.105802,4.3449666 c 0.735902,-0.6165275 1.971574,-0.6282276 2.679725,-0.1167647 0.01631,0.014576 0.733569,0.5943644 0.7316,0.5954654 L 50.575151,25.90483 c 0.78993,0.909934 0.747127,2.103636 0.147516,3.093132 L 29.166774,50.61306 c -0.797552,0.715713 -2.226742,0.726695 -3.107074,0.04603 L 4.0335979,28.703378 C 3.7389877,28.0807 3.7016161,27.053098 4.1811138,26.199415 z"
     id="path1921"
     sodipodi:nodetypes="cccccccccc" />
  <g
     transform="matrix(0.5156383,0,0,0.52015935,-154.37579,-188.32089)"
     id="layer1"
     style="fill:#ffffff">
    <path
       d="m 366.14024,390.14513 c 0,1.26285 2.3607,2.33744 3.28185,2.9352 1.26939,0.8245 2.32091,1.79466 3.38683,2.83215 1.1661,1.13368 1.83692,2.0736 2.84159,3.36257 0.58884,0.75578 2.01077,3.45325 2.75059,3.45325 1.00312,0 1.82252,-0.41911 1.82252,-1.45249 0,-1.40164 -4.22965,-6.13424 -5.26073,-7.13738 -1.13377,-1.10481 -5.65016,-5.28364 -7.33144,-5.28364 -0.6673,0 -1.49121,0.58264 -1.49121,1.29034 l 0,0 0,0 z m -40.26171,9.1945 c 0,0.78052 0.52394,1.29034 1.32542,1.29034 1.53693,0 2.45722,-2.10384 3.24713,-3.12897 1.52973,-1.98566 4.24081,-4.83017 6.59431,-5.84018 0.97025,-0.41499 3.41351,-1.62975 3.41351,-2.80603 0,-0.58538 -0.19656,-0.56615 -0.33146,-1.12955 -0.97574,-0.0783 -0.34543,-0.32156 -0.99409,-0.32156 -2.70233,0 -13.25482,9.41024 -13.25482,11.93595 l 0,0 0,0 z m 15.07735,7.42045 c 0,2.07636 1.93738,3.25677 3.27253,4.55672 0.40272,0.39301 3.85205,3.72398 3.85205,3.83255 0,1.42775 -7.45605,5.86078 -7.45605,8.71078 0,1.77542 1.22819,3.06438 2.98243,3.06438 2.84005,0 8.02838,-7.25968 8.94713,-7.25968 0.69706,0 6.93183,6.96561 7.95288,7.09753 2.32558,0.23773 3.97665,-0.77914 3.97665,-3.06575 0,-2.56556 -7.30309,-6.92164 -7.45591,-8.70941 l 6.79314,-6.2923 c 0.35221,-0.56753 0.33132,-0.50156 0.33132,-1.12818 0,-1.68609 -0.76042,-3.54946 -2.81663,-3.54946 -3.1873,0 -6.43641,5.4087 -8.78145,6.93677 -2.09035,-1.3618 -5.84208,-6.93677 -8.45001,-6.93677 -1.5804,0 -3.14808,1.07185 -3.14808,2.74282 l 0,0 0,0 z m 29.20871,33.27667 c 1.32597,-0.93718 2.16767,-1.63938 3.3071,-2.74833 0.86061,-0.83824 5.42652,-5.5461 5.42652,-6.4929 0,-1.16391 -0.3721,-1.77404 -1.65701,-1.77404 -0.8472,0 -2.29382,2.53395 -2.9391,3.26776 -1.99101,2.2646 -3.86969,4.16644 -6.43868,5.83055 -0.8201,0.53042 -3.37992,1.65174 -3.37992,2.67686 0,0.88633 0.427,1.61327 1.49108,1.61327 1.0844,0 3.25743,-1.71358 4.19001,-2.37317 l 0,0 0,0 z m -36.16751,-24.72663 c 0,-4.93599 2.42026,-9.55867 5.01167,-12.05826 1.97422,-1.90458 2.42815,-2.30996 4.98641,-3.69512 5.61109,-3.03551 12.12936,-2.34293 17.74736,0.35453 3.26548,1.5693 5.7165,4.57596 7.40991,7.62659 3.78857,6.8227 1.67577,15.50054 -3.71589,20.79791 -3.59793,3.53572 -7.94781,4.82606 -12.71381,5.08302 -5.27837,-0.6541 -9.22129,-1.33431 -13.13361,-5.16409 -3.5436,-3.46838 -5.59204,-8.04708 -5.59204,-12.94458 l 0,0 0,0 z m 0.95289,16.49403 c 1.67705,1.63251 4.15939,3.70474 6.38477,4.75322 1.7019,0.80113 6.43502,2.46524 8.73391,2.46524 l 3.31389,0 c 12.62096,0 23.52734,-10.80776 23.52734,-23.06801 l 0,-1.93483 c 0,-3.60304 -1.45212,-6.38297 -2.46526,-8.89218 -0.9519,-2.35669 -3.13919,-4.87277 -4.86606,-6.55337 -3.39614,-3.3076 -9.50011,-6.81583 -16.19602,-6.81583 -7.51236,0 -14.9869,2.79092 -19.74894,8.67919 -2.88268,3.56457 -5.43557,8.58025 -5.43557,14.87254 0,6.14112 2.25051,12.11184 6.75194,16.49403 l 0,0 0,0 z m 4.68049,8.9925 c 0,-1.94306 -2.1245,-2.28523 -3.41336,-3.12896 -2.45115,-1.60364 -4.84248,-3.67175 -6.59685,-5.9982 -0.71004,-0.94268 -1.82324,-3.13172 -3.07908,-3.13172 -1.12927,0 -1.32541,0.93856 -1.32541,1.77405 0,0.9784 4.68896,6.10814 5.63325,6.7746 1.27178,0.8987 5.75727,4.83979 7.4559,4.83979 0.4998,0 1.32555,-0.65822 1.32555,-1.12956 l 0,0 0,0 z"
       id="path32"
       style="fill:#ffffff;fill-opacity:1;stroke:none"
       inkscape:connector-curvature="0" />
  </g>
</svg>
