<?xml version="1.0" ?><!DOCTYPE svg  PUBLIC '-//W3C//DTD SVG 1.1//EN'  'http://www.w3.org/Graphics/SVG/1.1/DTD/svg11.dtd' [
	<!ENTITY stroke_color "#000">
	<!ENTITY fill_color "#eee">
]><svg height="55px" viewBox="0 0 55 55" width="55px" xmlns="http://www.w3.org/2000/svg" xmlns:xlink="http://www.w3.org/1999/xlink" stroke-linecap="round" stroke-linejoin="round" stroke-width="3.5" stroke="&stroke_color;" fill="&fill_color;">
 <g>
  <path d="M 27.497 48.279 C 26.944 48.279 26.398 48.244 25.86 48.179 L 27.248 50.527 L 28.616 48.215 C 28.245 48.245 27.875 48.279 27.497 48.279 Z " />
  <g>
   <path d="M 40.16 11.726 C 37.996 11.726 36.202 13.281 35.816 15.333 C 37.675 16.678 39.273 18.448 40.492 20.541 C 42.777 20.369 44.586 18.48 44.586 16.151 C 44.586 13.707 42.604 11.726 40.16 11.726 Z " />
   <path d="M 40.713 39.887 C 39.488 42.119 37.854 44.018 35.916 45.444 C 36.437 47.307 38.129 48.682 40.16 48.682 C 42.603 48.682 44.586 46.703 44.586 44.258 C 44.586 42.003 42.893 40.162 40.713 39.887 Z " />
   <path d="M 14.273 39.871 C 12.02 40.077 10.249 41.95 10.249 44.258 C 10.249 46.701 12.229 48.682 14.673 48.682 C 16.737 48.682 18.457 47.262 18.945 45.35 C 17.062 43.934 15.47 42.061 14.273 39.871 Z " />
   <path d="M 19.026 15.437 C 18.683 13.334 16.872 11.726 14.673 11.726 C 12.229 11.726 10.249 13.707 10.249 16.15 C 10.249 18.532 12.135 20.46 14.494 20.556 C 15.68 18.513 17.226 16.772 19.026 15.437 Z " />
  </g>
  <path d="M 27.497 12.563 C 29.404 12.563 31.225 12.974 32.915 13.691 C 33.656 12.615 34.093 11.314 34.093 9.908 C 34.093 6.221 31.104 3.231 27.416 3.231 C 23.729 3.231 20.74 6.221 20.74 9.908 C 20.74 11.336 21.192 12.657 21.956 13.742 C 23.68 12.993 25.543 12.563 27.497 12.563 Z " />
  <g>
   <path d="M 43.101 30.421 C 43.101 35.1554 41.4559 39.7008 38.5307 43.0485 C 35.6055 46.3963 31.6339 48.279 27.497 48.279 C 23.3601 48.279 19.3885 46.3963 16.4633 43.0485 C 13.5381 39.7008 11.893 35.1554 11.893 30.421 C 11.893 20.6244 18.9369 12.563 27.497 12.563 C 36.0571 12.563 43.101 20.6244 43.101 30.421 Z " />
  </g>
  <g>
   <path d="M 26.601 23.103 L 24.438 31.431 L 27.329 31.431 L 24.594 41.123 L 32.312 29.539 L 29.688 29.539 L 32.931 23.103 Z " fill="&stroke_color;" stroke="none" />
   <path d="M 18.662 33.928 C 18.662 33.928 17.738 30.265 18.702 26.776 C 20.124 21.626 23.495 20.434 23.495 20.434 L 25.156 22.62 L 22.845 30.994 L 18.662 33.928 Z " fill="&stroke_color;" stroke="none" />
   <path d="M 21.012 38.387 C 19.908 36.948 19.494 35.85 19.494 35.85 L 23.46 33.047 L 25.162 33.097 L 23.347 40.379 C 23.348 40.379 22.115 39.823 21.012 38.387 Z " fill="&stroke_color;" stroke="none" />
   <path d="M 30.217 41.043 C 28.043 41.708 26.189 41.415 26.189 41.415 L 30.371 35.202 L 33.933 38.445 L 33.933 38.445 C 33.933 38.445 32.389 40.379 30.217 41.043 Z " fill="&stroke_color;" stroke="none" />
   <path d="M 36.597 28.052 L 31.979 28.232 L 34.48 23.146 C 34.48 23.146 35.447 24.526 35.906 25.644 C 36.45 26.968 36.597 28.052 36.597 28.052 Z " fill="&stroke_color;" stroke="none" />
   <path d="M 34.876 37.288 L 31.152 33.966 L 34.008 29.557 L 36.779 29.525 C 36.779 29.525 36.947 30.761 36.528 33.137 C 36.136 35.366 34.876 37.288 34.876 37.288 Z " fill="&stroke_color;" stroke="none" />
   <path d="M 26.499 21.575 L 24.943 19.75 C 24.943 19.75 26.534 19.183 28.646 19.402 C 31.426 19.69 33.135 21.584 33.135 21.584 L 26.499 21.575 Z " fill="&stroke_color;" stroke="none" />
  </g>
 </g>
</svg>