<?xml version="1.0" encoding="UTF-8" standalone="no"?>
<svg
   xmlns:dc="http://purl.org/dc/elements/1.1/"
   xmlns:cc="http://creativecommons.org/ns#"
   xmlns:rdf="http://www.w3.org/1999/02/22-rdf-syntax-ns#"
   xmlns:svg="http://www.w3.org/2000/svg"
   xmlns="http://www.w3.org/2000/svg"
   xmlns:sodipodi="http://sodipodi.sourceforge.net/DTD/sodipodi-0.dtd"
   xmlns:inkscape="http://www.inkscape.org/namespaces/inkscape"
   version="1.0"
   width="55"
   height="55"
   viewBox="0 0 55 55"
   id="svg2"
   xml:space="preserve"
   inkscape:version="0.47 r22583"
   sodipodi:docname="application-x-turtle-art.svg"><metadata
   id="metadata49"><rdf:RDF><cc:Work
       rdf:about=""><dc:format>image/svg+xml</dc:format><dc:type
         rdf:resource="http://purl.org/dc/dcmitype/StillImage" /></cc:Work></rdf:RDF></metadata><defs
   id="defs47"><inkscape:perspective
     sodipodi:type="inkscape:persp3d"
     inkscape:vp_x="0 : 27.5 : 1"
     inkscape:vp_y="0 : 1000 : 0"
     inkscape:vp_z="55 : 27.5 : 1"
     inkscape:persp3d-origin="27.5 : 18.333333 : 1"
     id="perspective51" /><inkscape:perspective
     id="perspective3649"
     inkscape:persp3d-origin="0.5 : 0.33333333 : 1"
     inkscape:vp_z="1 : 0.5 : 1"
     inkscape:vp_y="0 : 1000 : 0"
     inkscape:vp_x="0 : 0.5 : 1"
     sodipodi:type="inkscape:persp3d" /><inkscape:perspective
     id="perspective2895"
     inkscape:persp3d-origin="0.5 : 0.33333333 : 1"
     inkscape:vp_z="1 : 0.5 : 1"
     inkscape:vp_y="0 : 1000 : 0"
     inkscape:vp_x="0 : 0.5 : 1"
     sodipodi:type="inkscape:persp3d" /><inkscape:perspective
     id="perspective3691"
     inkscape:persp3d-origin="0.5 : 0.33333333 : 1"
     inkscape:vp_z="1 : 0.5 : 1"
     inkscape:vp_y="0 : 1000 : 0"
     inkscape:vp_x="0 : 0.5 : 1"
     sodipodi:type="inkscape:persp3d" /><inkscape:perspective
     id="perspective3713"
     inkscape:persp3d-origin="0.5 : 0.33333333 : 1"
     inkscape:vp_z="1 : 0.5 : 1"
     inkscape:vp_y="0 : 1000 : 0"
     inkscape:vp_x="0 : 0.5 : 1"
     sodipodi:type="inkscape:persp3d" /><inkscape:perspective
     id="perspective3735"
     inkscape:persp3d-origin="0.5 : 0.33333333 : 1"
     inkscape:vp_z="1 : 0.5 : 1"
     inkscape:vp_y="0 : 1000 : 0"
     inkscape:vp_x="0 : 0.5 : 1"
     sodipodi:type="inkscape:persp3d" /><inkscape:perspective
     id="perspective3757"
     inkscape:persp3d-origin="0.5 : 0.33333333 : 1"
     inkscape:vp_z="1 : 0.5 : 1"
     inkscape:vp_y="0 : 1000 : 0"
     inkscape:vp_x="0 : 0.5 : 1"
     sodipodi:type="inkscape:persp3d" /><inkscape:perspective
     id="perspective3779"
     inkscape:persp3d-origin="0.5 : 0.33333333 : 1"
     inkscape:vp_z="1 : 0.5 : 1"
     inkscape:vp_y="0 : 1000 : 0"
     inkscape:vp_x="0 : 0.5 : 1"
     sodipodi:type="inkscape:persp3d" /><inkscape:perspective
     id="perspective3801"
     inkscape:persp3d-origin="0.5 : 0.33333333 : 1"
     inkscape:vp_z="1 : 0.5 : 1"
     inkscape:vp_y="0 : 1000 : 0"
     inkscape:vp_x="0 : 0.5 : 1"
     sodipodi:type="inkscape:persp3d" /><inkscape:perspective
     id="perspective3823"
     inkscape:persp3d-origin="0.5 : 0.33333333 : 1"
     inkscape:vp_z="1 : 0.5 : 1"
     inkscape:vp_y="0 : 1000 : 0"
     inkscape:vp_x="0 : 0.5 : 1"
     sodipodi:type="inkscape:persp3d" /></defs><sodipodi:namedview
   pagecolor="#ffffff"
   bordercolor="#666666"
   borderopacity="1"
   objecttolerance="10"
   gridtolerance="10"
   guidetolerance="10"
   inkscape:pageopacity="0"
   inkscape:pageshadow="2"
   inkscape:window-width="1440"
   inkscape:window-height="814"
   id="namedview45"
   showgrid="false"
   inkscape:zoom="24.273047"
   inkscape:cx="20.814849"
   inkscape:cy="19.738163"
   inkscape:window-x="-4"
   inkscape:window-y="-3"
   inkscape:window-maximized="1"
   inkscape:current-layer="svg2" />
<g
   transform="translate(-0.5507515,-1.7569535)"
   id="g3">
  <line
   style="fill:none;stroke-width:3.5;stroke-linecap:round;stroke-linejoin:round;stroke-opacity:1"
   y2="4.9"
   y1="16.2"
   x2="52.4"
   x1="41.2"
   id="line5" />
  <polyline
   style="fill:none;stroke-width:3.5;stroke-linecap:round;stroke-linejoin:round;stroke-opacity:1"
   points="51.6,15.3 41.2,16.2 42.1,5.8"
   id="polyline7" />
</g>
<polygon
   points="11.0,6.1 31.9,6.1 43.9,18.0 43.9,48.9 10.9,48.9 10.9,6.1 "
   transform="translate(-6,2)"
   stroke="#010101"
   style="fill:none;stroke-width:3.5"
   id="polygon9" />
<polyline
   points="43.818,18.027 31.874,18.027 31.874,6.088"
   stroke="#010101"
   style="fill:none;stroke-width:3.5"
   transform="translate(-6,2)"
   id="polyline11" />
<path
   d="M 21.379465,44.19975 C 21.102965,44.19975 20.829965,44.18225 20.560965,44.14975 L 21.254965,45.32425 L 21.938965,44.16775 C 21.753465,44.18275 21.568465,44.19975 21.379465,44.19975 z"
   stroke="#010101"
   fill="#FFFFFF"
   style="fill-opacity:1;stroke-width:1.5;stroke-miterlimit:4;stroke-dasharray:none;stroke-opacity:1"
   id="path13" />
<g
   transform="matrix(0.5,0,0,0.5,7.6,20.0)"
   stroke="#010101"
   fill="#FFFFFF"
   style="fill-opacity:1;stroke-width:3;stroke-miterlimit:4;stroke-dasharray:none;stroke-opacity:1"
   id="g15">
    <path
   d="M 40.16,11.726 C 37.996,11.726 36.202,13.281 35.817,15.333 C 37.676,16.678 39.274,18.448 40.492,20.541 C 42.777,20.369 44.586,18.48 44.586,16.151 C 44.586,13.707 42.604,11.726 40.16,11.726 z"
   stroke="#010101"
   fill="#FFFFFF"
   style="fill-opacity:1;stroke-width:3;stroke-miterlimit:4;stroke-dasharray:none;stroke-opacity:1"
   id="path17" />
    <path
   d="M 40.713,39.887 C 39.489,42.119 37.853,44.018 35.916,45.443 C 36.437,47.307 38.129,48.682 40.16,48.682 C 42.603,48.682 44.586,46.702 44.586,44.258 C 44.586,42.003 42.893,40.162 40.713,39.887 z"
   stroke="#010101"
   fill="#FFFFFF"
   style="fill-opacity:1;stroke-width:3;stroke-miterlimit:4;stroke-dasharray:none;stroke-opacity:1"
   id="path19" />
    <path
   d="M 14.273,39.871 C 12.02,40.077 10.249,41.95 10.249,44.258 C 10.249,46.701 12.229,48.682 14.673,48.682 C 16.737,48.682 18.457,47.262 18.945,45.35 C 17.062,43.934 15.47,42.061 14.273,39.871 z"
   stroke="#010101"
   fill="#FFFFFF"
   style="fill-opacity:1;stroke-width:3;stroke-miterlimit:4;stroke-dasharray:none;stroke-opacity:1"
   id="path21" />
    <path
   d="M 19.026,15.437 C 18.683,13.334 16.872,11.726 14.673,11.726 C 12.229,11.726 10.249,13.707 10.249,16.15 C 10.249,18.532 12.135,20.46 14.494,20.556 C 15.68,18.513 17.226,16.772 19.026,15.437 z"
   stroke="#010101"
   fill="#FFFFFF"
   style="fill-opacity:1;stroke-width:3;stroke-miterlimit:4;stroke-dasharray:none;stroke-opacity:1"
   id="path23" />
   </g>
<path
   d="M 21.379465,26.34175 C 22.333465,26.34175 23.243465,26.54725 24.088465,26.90575 C 24.458965,26.36775 24.677465,25.71725 24.677465,25.01425 C 24.677465,23.17075 23.182965,21.67575 21.338965,21.67575 C 19.495465,21.67575 18.000965,23.17075 18.000965,25.01425 C 18.000965,25.72825 18.226965,26.38875 18.608965,26.93125 C 19.470965,26.55675 20.402465,26.34175 21.379465,26.34175 z"
   stroke="#010101"
   fill="#FFFFFF"
   style="fill-opacity:1;stroke-width:1.5;stroke-miterlimit:4;stroke-dasharray:none;stroke-opacity:1"
   id="path25" />
<g
   transform="matrix(0.5,0,0,0.5,7.630965,20.06025)"
   stroke="#010101"
   fill="#FFFFFF"
   style="fill-opacity:1;stroke-width:3;stroke-miterlimit:4;stroke-dasharray:none;stroke-opacity:1"
   id="g27">
    <path
   d="M 43.102,30.421 C 43.102,35.1554 41.4568,39.7008 38.5314,43.0485 C 35.606,46.3963 31.6341,48.279 27.497,48.279 C 23.3599,48.279 19.388,46.3963 16.4626,43.0485 C 13.5372,39.7008 11.892,35.1554 11.892,30.421 C 11.892,20.6244 18.9364,12.563 27.497,12.563 C 36.0576,12.563 43.102,20.6244 43.102,30.421 z"
   stroke="#010101"
   fill="#FFFFFF"
   style="fill-opacity:1;stroke-width:3;stroke-miterlimit:4;stroke-dasharray:none;stroke-opacity:1"
   id="path29" />
   </g>

<g
   id="g2856"><path
     style="fill:#000000;stroke:none"
     id="path26"
     d="m 20.904163,31.266897 -1.23903,4.468688 1.65605,0 -1.566689,5.200591 4.421099,-6.215812 -1.503105,0 1.857687,-3.453467 z" /><path
     style="fill:#000000;stroke:none"
     id="path28"
     d="m 16.356469,37.07544 c 0,0 -0.529294,-1.965515 0.02291,-3.837663 0.814564,-2.763418 2.745573,-3.403028 2.745573,-3.403028 l 0.95147,1.172977 -1.323809,4.493371 -2.396147,1.574343 z" /><path
     style="fill:#000000;stroke:none"
     id="path30"
     d="m 17.702619,39.468077 c -0.632404,-0.772148 -0.869555,-1.361319 -0.869555,-1.361319 l 2.271842,-1.50405 0.974956,0.02683 -1.039686,3.907419 c 5.73e-4,0 -0.705726,-0.298342 -1.337557,-1.068879 z" /><path
     style="fill:#000000;stroke:none"
     id="path32"
     d="m 22.975515,40.893249 c -1.245331,0.35683 -2.307357,0.19961 -2.307357,0.19961 l 2.395573,-3.333809 2.040419,1.740149 0,0 c 0,0 -0.884449,1.037757 -2.128635,1.39405 z" /><path
     style="fill:#000000;stroke:none"
     id="path34"
     d="m 26.630168,33.922461 -2.645327,0.09659 1.432647,-2.729076 c 0,0 0.553926,0.740489 0.816855,1.340392 0.311619,0.710439 0.395825,1.292099 0.395825,1.292099 z" /><path
     style="fill:#000000;stroke:none"
     id="path36"
     d="m 25.644328,38.878369 -2.133217,-1.782539 1.636001,-2.365807 1.587311,-0.01717 c 0,0 0.09624,0.66322 -0.14378,1.938148 -0.224549,1.19605 -0.946315,2.227369 -0.946315,2.227369 z" /><path
     style="fill:#000000;stroke:none"
     id="path38"
     d="m 20.845735,30.446993 -0.891323,-0.979269 c 0,0 0.911372,-0.304244 2.121188,-0.186732 1.592466,0.154537 2.571432,1.170831 2.571432,1.170831 l -3.801297,-0.0048 z" /><g
     id="g2848"><path
       style="fill:#ffffff"
       d="m 16.842072,36.053411 c -0.0084,-0.02432 -0.03733,-0.189675 -0.06403,-0.36747 -0.06009,-0.399747 -0.06927,-1.517691 -0.01545,-1.877399 0.128797,-0.860524 0.444794,-1.65338 0.901864,-2.262826 0.193028,-0.257377 0.575159,-0.613141 0.802745,-0.747355 l 0.168035,-0.09908 0.06162,0.08132 c 0.03389,0.04472 0.172862,0.240704 0.308836,0.435514 l 0.247234,0.354199 -0.429876,1.687742 -0.429875,1.687742 -0.701613,0.531713 c -0.877202,0.664785 -0.829682,0.632566 -0.849485,0.57592 z"
       id="path2909" /></g><path
     style="fill:#ffffff;stroke:none"
     id="path30-4"
     d="M 18.028643,39.0669 C 17.634553,38.552036 17.48677,38.159179 17.48677,38.159179 l 1.415726,-1.002893 0.607555,0.01788 -0.647892,2.605447 c 3.56e-4,0 -0.439783,-0.198933 -0.833516,-0.712724 z" /><path
     style="fill:#ffffff;stroke:none"
     id="path32-3"
     d="m 23.0819,40.452551 c -0.746463,0.230298 -1.383053,0.128828 -1.383053,0.128828 l 1.435931,-2.151656 1.223048,1.123102 0,0 c 0,0 -0.530148,0.669772 -1.275926,0.899726 z" /><path
     style="fill:#ffffff;stroke:none"
     id="path36-0"
     d="m 25.577229,38.089113 -1.213246,-1.146766 0.93046,-1.522001 0.902767,-0.01108 c 0,0 0.05473,0.426672 -0.08178,1.246874 -0.127711,0.769459 -0.538207,1.43294 -0.538207,1.43294 z" /><path
     style="fill:#ffffff;stroke:none"
     id="path34-4"
     d="m 26.200841,33.562758 -1.596598,0.05019 0.86468,-1.418164 c 0,0 0.334324,0.384795 0.493016,0.696534 0.188079,0.369181 0.238902,0.67144 0.238902,0.67144 z" /><path
     style="fill:#ffffff;stroke:none"
     id="path38-5"
     d="m 21.321182,30.095109 -0.537195,-0.364135 c 0,0 0.549278,-0.113132 1.278427,-0.06945 0.95977,0.05746 1.549786,0.435368 1.549786,0.435368 l -2.291018,-0.0017 z" /><path
     sodipodi:nodetypes="cccccccc"
     style="fill:#ffffff;stroke:none"
     id="path26-1"
     d="m 21.280862,31.812606 -0.990925,3.424247 1.615188,0.05826 -1.119357,3.652342 2.533427,-3.960275 -1.281394,0 1.631479,-3.174576 -2.388418,0 z" /></g></svg>