<?xml version="1.0" encoding="UTF-8" standalone="no"?>
<!-- Created with Inkscape (http://www.inkscape.org/) -->

<svg
   xmlns:dc="http://purl.org/dc/elements/1.1/"
   xmlns:cc="http://creativecommons.org/ns#"
   xmlns:rdf="http://www.w3.org/1999/02/22-rdf-syntax-ns#"
   xmlns:svg="http://www.w3.org/2000/svg"
   xmlns="http://www.w3.org/2000/svg"
   xmlns:sodipodi="http://sodipodi.sourceforge.net/DTD/sodipodi-0.dtd"
   xmlns:inkscape="http://www.inkscape.org/namespaces/inkscape"
   version="1.1"
   width="55"
   height="55"
   viewBox="0 0 55 55"
   id="svg2"
   inkscape:version="0.47 r22583"
   sodipodi:docname="menu-icon.svg">
  <metadata
     id="metadata23">
    <rdf:RDF>
      <cc:Work
         rdf:about="">
        <dc:format>image/svg+xml</dc:format>
        <dc:type
           rdf:resource="http://purl.org/dc/dcmitype/StillImage" />
      </cc:Work>
    </rdf:RDF>
  </metadata>
  <sodipodi:namedview
     pagecolor="#ffffff"
     bordercolor="#666666"
     borderopacity="1"
     objecttolerance="10"
     gridtolerance="10"
     guidetolerance="10"
     inkscape:pageopacity="0"
     inkscape:pageshadow="2"
     inkscape:window-width="1440"
     inkscape:window-height="814"
     id="namedview21"
     showgrid="false"
     inkscape:zoom="12.136524"
     inkscape:cx="29.930379"
     inkscape:cy="25.705618"
     inkscape:window-x="-4"
     inkscape:window-y="-3"
     inkscape:window-maximized="1"
     inkscape:current-layer="svg2" />
  <defs
     id="defs40">
    <inkscape:perspective
       sodipodi:type="inkscape:persp3d"
       inkscape:vp_x="0 : 27.5 : 1"
       inkscape:vp_y="0 : 1000 : 0"
       inkscape:vp_z="55 : 27.5 : 1"
       inkscape:persp3d-origin="27.5 : 18.333333 : 1"
       id="perspective25" />
    <inkscape:perspective
       id="perspective2881"
       inkscape:persp3d-origin="0.5 : 0.33333333 : 1"
       inkscape:vp_z="1 : 0.5 : 1"
       inkscape:vp_y="0 : 1000 : 0"
       inkscape:vp_x="0 : 0.5 : 1"
       sodipodi:type="inkscape:persp3d" />
  </defs>
  <path
     style="fill:#00a000;fill-opacity:1;stroke:#004000;stroke-width:1;stroke-opacity:1"
     id="path6"
     d="m 32.255001,47.430491 c -0.534157,0.143127 -1.070611,0.250635 -1.607102,0.327094 l 1.948671,1.909719 0.722738,-2.588251 c -0.350594,0.125 -0.699187,0.253604 -1.064307,0.351438 z" />
  <g
     style="fill:#00a000;fill-opacity:1;stroke:#004000;stroke-width:2.5;stroke-miterlimit:4;stroke-opacity:1;stroke-dasharray:none"
     id="g8"
     transform="matrix(0.96592583,-0.25881905,0.25881905,0.96592583,-6.8005861,7.9133051)">
    <path
       style="fill:#00a000;fill-opacity:1;stroke:#004000;stroke-width:2.5;stroke-miterlimit:4;stroke-opacity:1;stroke-dasharray:none"
       id="path10"
       d="m 40.16,11.726 c -2.164,0 -3.958,1.555 -4.343,3.607 1.859,1.345 3.457,3.115 4.675,5.208 2.285,-0.172 4.094,-2.061 4.094,-4.39 0,-2.444 -1.982,-4.425 -4.426,-4.425 z" />
    <path
       style="fill:#00a000;fill-opacity:1;stroke:#004000;stroke-width:2.5;stroke-miterlimit:4;stroke-opacity:1;stroke-dasharray:none"
       id="path12"
       d="m 40.713,39.887 c -1.224,2.232 -2.86,4.131 -4.797,5.556 0.521,1.864 2.213,3.239 4.244,3.239 2.443,0 4.426,-1.98 4.426,-4.424 0,-2.255 -1.693,-4.096 -3.873,-4.371 z" />
    <path
       style="fill:#00a000;fill-opacity:1;stroke:#004000;stroke-width:2.5;stroke-miterlimit:4;stroke-opacity:1;stroke-dasharray:none"
       id="path14"
       d="m 14.273,39.871 c -2.253,0.206 -4.024,2.079 -4.024,4.387 0,2.443 1.98,4.424 4.424,4.424 2.064,0 3.784,-1.42 4.272,-3.332 -1.883,-1.416 -3.475,-3.289 -4.672,-5.479 z" />
    <path
       style="fill:#00a000;fill-opacity:1;stroke:#004000;stroke-width:2.5;stroke-miterlimit:4;stroke-opacity:1;stroke-dasharray:none"
       id="path16"
       d="m 19.026,15.437 c -0.343,-2.103 -2.154,-3.711 -4.353,-3.711 -2.444,0 -4.424,1.981 -4.424,4.424 0,2.382 1.886,4.31 4.245,4.406 1.186,-2.043 2.732,-3.784 4.532,-5.119 z" />
  </g>
  <path
     style="fill:#00a000;fill-opacity:1;stroke:#004000;stroke-width:2.5;stroke-miterlimit:4;stroke-opacity:1;stroke-dasharray:none"
     id="path18"
     d="m 23.01102,12.931484 c 1.842987,-0.493827 3.707346,-0.567882 5.525334,-0.312717 0.437262,-1.231122 0.522648,-2.600895 0.158748,-3.9589866 -0.954265,-3.5613686 -4.615287,-5.6758767 -8.177621,-4.721352 -3.561369,0.9542658 -5.674652,4.6159942 -4.720386,8.1773626 0.369593,1.379342 1.148092,2.538344 2.166878,3.388636 1.4714,-1.169683 3.159628,-2.067211 5.047047,-2.572943 z" />
  <g
     style="fill:#00a000;fill-opacity:1;stroke:#004000;stroke-width:2.5;stroke-miterlimit:4;stroke-opacity:1;stroke-dasharray:none"
     id="g20"
     transform="matrix(0.96592583,-0.25881905,0.25881905,0.96592583,-6.8005861,7.9133051)">
    <path
       style="fill:#00a000;fill-opacity:1;stroke:#004000;stroke-width:2.5;stroke-miterlimit:4;stroke-opacity:1;stroke-dasharray:none"
       id="path22"
       d="m 43.102,30.421 c 0,4.7344 -1.6452,9.2798 -4.5706,12.6275 -2.9254,3.3478 -6.8973,5.2305 -11.0344,5.2305 -4.1371,0 -8.109,-1.8827 -11.0344,-5.2305 -2.9254,-3.3477 -4.5706,-7.8931 -4.5706,-12.6275 0,-9.7966 7.0444,-17.858 15.605,-17.858 8.5606,0 15.605,8.0614 15.605,17.858 z" />
  </g>
  <path
     d="m 23.87776,23.359633 1.284195,9.243467 2.831268,-1.224819 1.281291,10.849653 2.825755,-14.852573 -2.569785,1.1117 0.546492,-7.809236 z"
     id="path26-6"
     style="fill:#004000;stroke:none;fill-opacity:1" />
  <path
     d="m 20.525473,37.54692 c 0,0 -2.401472,-3.271127 -2.882868,-7.168151 -0.711474,-5.751884 2.102872,-8.371931 2.102872,-8.371931 l 2.519799,1.482048 1.158047,9.352165 -2.897855,4.705872 z"
     id="path28-6"
     style="fill:#004000;stroke:none;fill-opacity:1" />
  <path
     d="M 24.648698,41.00981 C 22.979586,40.038696 22.12554,39.116216 22.12554,39.116216 l 2.738859,-4.482949 1.687263,-0.671085 1.197648,8.050148 c 9.8e-4,-4.24e-4 -1.433706,-0.03398 -3.100611,-1.002518 z"
     id="path30-49"
     style="fill:#004000;stroke:none;fill-opacity:1" />
  <path
     d="m 34.748652,39.765666 c -1.857388,1.585978 -3.792791,2.078487 -3.792791,2.078487 l 1.557198,-7.984085 4.813373,1.733543 0,0 c 0,0 -0.721941,2.587926 -2.57778,4.172055 z"
     id="path32-5"
     style="fill:#004000;stroke:none;fill-opacity:1" />
  <path
     d="m 35.689205,24.073115 -4.449042,2.13648 0.371381,-6.145025 c 0,0 1.510836,0.970162 2.417125,1.893575 1.073695,1.093377 1.66054,2.11498 1.66054,2.11498 z"
     id="path34-0"
     style="fill:#004000;stroke:none;fill-opacity:1" />
  <path
     d="m 37.777241,34.037222 -5.0043,-1.7439 0.995641,-5.618501 2.700675,-1.205975 c 0,0 0.66952,1.164684 1.229912,3.717939 0.526785,2.39483 0.07807,4.850439 0.07807,4.850439 z"
     id="path36-4"
     style="fill:#004000;stroke:none;fill-opacity:1" />
  <path
     d="m 23.153585,21.875015 -2.269477,-1.165572 c 0,0 1.326474,-1.24099 3.484312,-1.916798 2.840228,-0.889824 5.287735,0.27992 5.287735,0.27992 l -6.502547,2.802506 z"
     id="path38"
     style="fill:#004000;stroke:none;fill-opacity:1" />
  <g
     id="g2848"
     transform="matrix(1.7096513,-0.73960281,0.7614102,1.8634277,-35.668004,-19.443191)"
     style="fill:#00a000;fill-opacity:1">
    <path
       id="path2909"
       d="m 16.842072,36.053411 c -0.0084,-0.02432 -0.03733,-0.189675 -0.06403,-0.36747 -0.06009,-0.399747 -0.06927,-1.517691 -0.01545,-1.877399 0.128797,-0.860524 0.444794,-1.65338 0.901864,-2.262826 0.193028,-0.257377 0.575159,-0.613141 0.802745,-0.747355 l 0.168035,-0.09908 0.06162,0.08132 c 0.03389,0.04472 0.172862,0.240704 0.308836,0.435514 l 0.247234,0.354199 -0.429876,1.687742 -0.429875,1.687742 -0.701613,0.531713 c -0.877202,0.664785 -0.829682,0.632566 -0.849485,0.57592 z"
       style="fill:#00a000;fill-opacity:1" />
  </g>
  <path
     d="m 24.900625,40.021118 c -1.065779,-0.667942 -1.617562,-1.290702 -1.617562,-1.290702 l 1.656785,-2.915894 1.052321,-0.416031 0.876145,5.334245 c 6.08e-4,-2.63e-4 -0.903345,-0.04543 -1.967697,-0.711639 z"
     id="path30-4"
     style="fill:#00a000;stroke:none;fill-opacity:1" />
  <path
     d="m 34.594981,38.865775 c -1.10084,0.98123 -2.266447,1.262972 -2.266447,1.262972 l 0.816648,-5.071474 2.946127,1.188249 0,0 c 0,0 -0.396397,1.640171 -1.496328,2.620253 z"
     id="path32-3"
     style="fill:#00a000;stroke:none;fill-opacity:1" />
  <path
     d="m 37.061578,32.616127 -2.947387,-1.239596 0.431895,-3.524309 1.53498,-0.688336 c 0,0 0.418442,0.754594 0.809568,2.383944 0.367532,1.528287 0.170909,3.06824 0.170909,3.06824 z"
     id="path36-0"
     style="fill:#00a000;stroke:none;fill-opacity:1" />
  <path
     d="m 34.681324,23.720366 -2.691411,1.274374 0.398497,-3.282166 c 0,0 0.864565,0.469771 1.373234,0.933305 0.602647,0.548838 0.91968,1.074487 0.91968,1.074487 z"
     id="path34-4"
     style="fill:#00a000;stroke:none;fill-opacity:1" />
  <path
     d="m 23.698505,20.867663 -1.195672,-0.281229 c 0,0 0.852934,-0.617061 2.132785,-1.074943 1.684622,-0.602776 2.981087,-0.334949 2.981087,-0.334949 l -3.918136,1.691275 z"
     id="path38-5"
     style="fill:#00a000;stroke:none;fill-opacity:1" />
  <path
     d="m 24.937292,24.097915 0.91312,7.113728 2.805768,-1.086035 0.867221,7.633755 1.315883,-9.253416 -2.190737,0.947723 0.372105,-7.122239 -4.083361,1.76648 z"
     id="path26-1"
     style="fill:#00a000;stroke:none;fill-opacity:1"
     sodipodi:nodetypes="cccccccc" />
</svg>
