<?xml version="1.0" encoding="UTF-8" standalone="no"?>
<!-- Created with Inkscape (http://www.inkscape.org/) -->
<svg
   xmlns:dc="http://purl.org/dc/elements/1.1/"
   xmlns:cc="http://creativecommons.org/ns#"
   xmlns:rdf="http://www.w3.org/1999/02/22-rdf-syntax-ns#"
   xmlns:svg="http://www.w3.org/2000/svg"
   xmlns="http://www.w3.org/2000/svg"
   xmlns:xlink="http://www.w3.org/1999/xlink"
   xmlns:sodipodi="http://sodipodi.sourceforge.net/DTD/sodipodi-0.dtd"
   xmlns:inkscape="http://www.inkscape.org/namespaces/inkscape"
   version="1.0"
   width="55"
   height="55"
   id="svg2381"
   sodipodi:version="0.32"
   inkscape:version="0.46"
   sodipodi:docname="butiaon.svg"
   inkscape:output_extension="org.inkscape.output.svg.inkscape">
  <metadata
     id="metadata3470">
    <rdf:RDF>
      <cc:Work
         rdf:about="">
        <dc:format>image/svg+xml</dc:format>
        <dc:type
           rdf:resource="http://purl.org/dc/dcmitype/StillImage" />
      </cc:Work>
    </rdf:RDF>
  </metadata>
  <sodipodi:namedview
     inkscape:window-height="727"
     inkscape:window-width="960"
     inkscape:pageshadow="2"
     inkscape:pageopacity="0.0"
     guidetolerance="10.0"
     gridtolerance="10.0"
     objecttolerance="10.0"
     borderopacity="1.0"
     bordercolor="#666666"
     pagecolor="#ffffff"
     id="base"
     showgrid="false"
     inkscape:zoom="8"
     inkscape:cx="24.522576"
     inkscape:cy="22.330244"
     inkscape:window-x="154"
     inkscape:window-y="73"
     inkscape:current-layer="layer1"
     showborder="true" />
  <defs
     id="defs2383">
    <inkscape:perspective
       sodipodi:type="inkscape:persp3d"
       inkscape:vp_x="0 : 250.18124 : 1"
       inkscape:vp_y="0 : 1000 : 0"
       inkscape:vp_z="487.29123 : 250.18124 : 1"
       inkscape:persp3d-origin="243.64561 : 166.7875 : 1"
       id="perspective3472" />
    <inkscape:perspective
       id="perspective3554"
       inkscape:persp3d-origin="372.04724 : 350.78739 : 1"
       inkscape:vp_z="744.09448 : 526.18109 : 1"
       inkscape:vp_y="0 : 1000 : 0"
       inkscape:vp_x="0 : 526.18109 : 1"
       sodipodi:type="inkscape:persp3d" />
  </defs>
  <g
     transform="translate(-319.91163,-386.76719)"
     id="layer1">
    <rect
       style="fill:#ffd000;fill-opacity:1;stroke:#000000;stroke-width:0.24839912;stroke-miterlimit:4;stroke-dasharray:none;stroke-opacity:0.12177124"
       id="rect3650"
       width="55.038521"
       height="55.013523"
       x="320.03583"
       y="386.89139" />
    <path
       d="M 360.89715,389.71871 C 360.89715,390.97636 363.24611,392.04652 364.16267,392.64182 C 365.42575,393.46292 366.47204,394.42907 367.53266,395.46229 C 368.69296,396.5913 369.36044,397.52735 370.36012,398.811 C 370.94602,399.56367 372.36088,402.25003 373.09702,402.25003 C 374.09516,402.25003 374.91048,401.83263 374.91048,400.80353 C 374.91048,399.40766 370.70187,394.69456 369.67593,393.69556 C 368.54778,392.59529 364.05385,388.43369 362.38094,388.43369 C 361.71696,388.43369 360.89715,389.01394 360.89715,389.71871 L 360.89715,389.71871 L 360.89715,389.71871 z M 320.8357,398.87532 C 320.8357,399.65262 321.35702,400.16033 322.15452,400.16033 C 323.68381,400.16033 324.59952,398.06517 325.38551,397.04427 C 326.90763,395.06679 329.60522,392.23401 331.94702,391.22816 C 332.91244,390.81488 335.34355,389.60513 335.34355,388.43369 C 335.34355,387.85072 335.14796,387.86987 335.01373,387.30879 C 334.04284,387.23079 334.67002,386.98856 334.02459,386.98856 C 331.3357,386.98856 320.8357,396.36002 320.8357,398.87532 L 320.8357,398.87532 L 320.8357,398.87532 z M 335.83805,406.26519 C 335.83805,408.33299 337.7658,409.50853 339.09431,410.80312 C 339.49503,411.19451 342.92721,414.51176 342.92721,414.61987 C 342.92721,416.04173 335.50824,420.4565 335.50824,423.29476 C 335.50824,425.06286 336.73032,426.3465 338.47582,426.3465 C 341.30175,426.3465 346.46427,419.11674 347.37845,419.11674 C 348.07205,419.11674 354.27581,426.05365 355.29178,426.18502 C 357.60579,426.42177 359.24865,425.40909 359.24865,423.13191 C 359.24865,420.57693 351.98188,416.2388 351.82983,414.45838 L 358.58918,408.19203 C 358.93963,407.62684 358.91885,407.69253 358.91885,407.0685 C 358.91885,405.38935 358.1622,403.53367 356.11623,403.53367 C 352.94478,403.53367 349.71183,408.92007 347.37845,410.44184 C 345.2985,409.08566 341.56543,403.53367 338.97047,403.53367 C 337.39795,403.53367 335.83805,404.6011 335.83805,406.26519 L 335.83805,406.26519 L 335.83805,406.26519 z M 364.90148,439.40469 C 366.22086,438.47138 367.05837,437.77207 368.19213,436.6677 C 369.04846,435.83292 373.59167,431.14445 373.59167,430.20156 C 373.59167,429.04244 373.22142,428.43483 371.9429,428.43483 C 371.09991,428.43483 369.66048,430.95833 369.01842,431.68911 C 367.03731,433.94439 365.16797,435.83839 362.61177,437.49564 C 361.79574,438.02388 359.24865,439.14057 359.24865,440.16147 C 359.24865,441.04415 359.67352,441.76808 360.73231,441.76808 C 361.81131,441.76808 363.97354,440.06157 364.90148,439.40469 L 364.90148,439.40469 L 364.90148,439.40469 z M 328.91387,414.77998 C 328.91387,409.86433 331.32209,405.26072 333.90061,402.77142 C 335.86501,400.87469 336.31669,400.47098 338.86222,399.09154 C 344.4454,396.06853 350.93124,396.75825 356.5213,399.44461 C 359.77054,401.00743 362.20937,404.0017 363.89435,407.03976 C 367.66408,413.83434 365.5618,422.4764 360.19695,427.75195 C 356.61691,431.27309 352.28867,432.55811 347.54637,432.81401 C 342.29426,432.16261 338.37095,431.48521 334.4781,427.67121 C 330.95211,424.21713 328.91387,419.6573 328.91387,414.77998 L 328.91387,414.77998 L 328.91387,414.77998 z M 329.86202,431.20603 C 331.53073,432.83181 334.00072,434.8955 336.21503,435.93966 C 337.90846,436.73749 342.61803,438.39474 344.9055,438.39474 L 348.20291,438.39474 C 360.76109,438.39474 371.61323,427.63152 371.61323,415.4218 L 371.61323,413.49495 C 371.61323,409.90676 370.16833,407.13829 369.16023,404.63942 C 368.21306,402.29245 366.03664,399.78673 364.31838,398.11306 C 360.93912,394.81909 354.86551,391.32533 348.20291,391.32533 C 340.72791,391.32533 333.29056,394.10474 328.55219,399.96874 C 325.68386,403.51862 323.14367,408.51363 323.14367,414.77998 C 323.14367,420.89579 325.38298,426.8419 329.86202,431.20603 L 329.86202,431.20603 L 329.86202,431.20603 z M 334.51923,440.16147 C 334.51923,438.22641 332.4053,437.88566 331.12285,437.0454 C 328.68389,435.44837 326.30445,433.38878 324.55881,431.07192 C 323.85229,430.13313 322.74464,427.95312 321.49504,427.95312 C 320.37139,427.95312 320.17622,428.8878 320.17622,429.71985 C 320.17622,430.69422 324.84186,435.80281 325.78145,436.46653 C 327.04691,437.36153 331.51008,441.28637 333.20027,441.28637 C 333.69758,441.28637 334.51923,440.63086 334.51923,440.16147 L 334.51923,440.16147 L 334.51923,440.16147 z"
       id="path32"
       style="fill:#85c229;stroke:none" />
    <image
       y="-444.59464"
       x="763.28656"
       id="image3556"
       height="800"
       width="1280"
       sodipodi:absref="/home/andres/svn_butia/repolocal/trunk/tortugarte/TurtleArtButia.activity94/icons/pastedpic_12032010_005538.png"
       xlink:href="pastedpic_12032010_005538.png"
       style="fill:#ffd000;fill-opacity:1" />
    <path
       style="opacity:1;fill:#ffd000;fill-opacity:1;fill-rule:nonzero;stroke:none;stroke-width:1;stroke-linecap:butt;stroke-linejoin:miter;marker:none;marker-start:none;marker-mid:none;marker-end:none;stroke-miterlimit:4;stroke-dasharray:none;stroke-dashoffset:0;stroke-opacity:1;visibility:visible;display:inline;overflow:visible;enable-background:accumulate"
       d="M 345.30128,432.44057 C 341.1381,431.77712 338.74165,430.90792 336.39607,429.21064 C 335.44248,428.52062 333.48076,426.58261 332.71154,425.57066 C 329.06819,420.77758 328.0678,414.88981 329.95694,409.35844 C 331.9586,403.49757 337.11929,398.92502 343.30185,397.53439 C 345.14776,397.11921 348.55051,397.12748 350.60203,397.55215 C 353.54288,398.16092 356.45702,399.30386 358.25272,400.5528 C 360.92434,402.41096 363.81456,406.31518 364.9155,409.55314 C 367.35734,416.73484 364.08655,425.53061 357.34618,429.90843 C 355.53014,431.08794 353.0053,432.00797 350.49166,432.40618 C 348.15824,432.77584 347.43519,432.78063 345.30128,432.44057 z M 339.76782,425.98928 C 340.91078,425.42783 342.5382,424.01838 344.65517,421.75652 C 346.46936,419.81814 347.13428,419.19428 347.38599,419.19428 C 347.46464,419.19428 349.07312,420.66901 350.96036,422.47147 C 352.84763,424.27393 354.58625,425.86427 354.82396,426.00557 C 355.32278,426.30205 356.36696,426.34477 357.19618,426.10263 C 358.01803,425.86263 358.81662,425.12823 359.08237,424.36805 C 359.71947,422.54559 359.22743,421.77933 354.79739,417.69513 C 352.67366,415.7372 351.81813,414.78474 351.93796,414.51178 C 351.96397,414.45249 353.45717,413.04062 355.25617,411.37428 C 357.05515,409.70792 358.64291,408.15038 358.78449,407.91305 C 359.25081,407.13142 358.81316,405.1177 357.98682,404.24269 C 357.31289,403.52907 356.01688,403.328 354.86795,403.75883 C 353.81392,404.15406 352.26191,405.43371 350.33962,407.49249 C 349.31635,408.5884 348.22957,409.67771 347.92454,409.91319 L 347.36993,410.34131 L 346.82027,409.91077 C 346.51795,409.67397 345.50853,408.66264 344.57712,407.66336 C 342.65933,405.60581 341.17133,404.30495 340.18808,403.82632 C 338.94307,403.22028 337.26248,403.59777 336.35837,404.68655 C 336.01859,405.09573 335.92062,405.36647 335.87116,406.03304 C 335.75767,407.56217 335.91458,407.78851 339.58584,411.39149 C 343.42216,415.15648 343.26386,414.656 341.21173,416.53168 C 338.26782,419.22244 336.1966,421.34808 335.84845,422.03584 C 335.1817,423.35297 335.51072,424.95839 336.61575,425.77991 C 337.60078,426.5122 338.57192,426.57671 339.76783,425.98928 L 339.76782,425.98928 z"
       id="path3560" />
    <path
       style="opacity:1;fill:#ffd000;fill-opacity:1;fill-rule:nonzero;stroke:none;stroke-width:1;stroke-linecap:butt;stroke-linejoin:miter;marker:none;marker-start:none;marker-mid:none;marker-end:none;stroke-miterlimit:4;stroke-dasharray:none;stroke-dashoffset:0;stroke-opacity:1;visibility:visible;display:inline;overflow:visible;enable-background:accumulate"
       d=""
       id="path3562"
       transform="translate(318.49258,386.48691)" />
    <path
       style="opacity:1;fill:#ffd000;fill-opacity:1;fill-rule:nonzero;stroke:none;stroke-width:1;stroke-linecap:butt;stroke-linejoin:miter;marker:none;marker-start:none;marker-mid:none;marker-end:none;stroke-miterlimit:4;stroke-dasharray:none;stroke-dashoffset:0;stroke-opacity:1;visibility:visible;display:inline;overflow:visible;enable-background:accumulate"
       d="M 330.33454,395.30875 L 330.33454,392.79102 L 334.6429,392.79102 L 338.95124,392.79102 L 338.95124,392.81173 C 338.95124,392.83589 338.96894,392.82743 338.77841,392.8944 C 337.48131,393.3503 336.20794,393.92033 335.02381,394.57515 C 333.41725,395.46356 331.93598,396.53107 330.6334,397.73918 L 330.53928,397.82648 L 330.4369,397.82648 L 330.33454,397.82648 L 330.33454,395.30875 z"
       id="path3564" />
    <path
       style="opacity:1;fill:#ffd000;fill-opacity:1;fill-rule:nonzero;stroke:none;stroke-width:1;stroke-linecap:butt;stroke-linejoin:miter;marker:none;marker-start:none;marker-mid:none;marker-end:none;stroke-miterlimit:4;stroke-dasharray:none;stroke-dashoffset:0;stroke-opacity:1;visibility:visible;display:inline;overflow:visible;enable-background:accumulate"
       d="M 331.92862,405.16984 C 331.98422,405.07956 332.20821,404.76018 332.36793,404.54347 C 332.75567,404.01734 333.13816,403.56137 333.57803,403.10083 C 333.78216,402.88713 334.57902,402.11857 334.99172,401.73738 C 335.71088,401.0731 336.20921,400.67825 336.8727,400.24698 L 337.03474,400.14165 L 337.10587,400.14338 L 337.177,400.14512 L 337.05392,400.2278 C 335.24555,401.4428 333.66527,402.95648 332.40132,404.68436 C 332.31067,404.80827 332.0816,405.1318 332.06428,405.1604 C 332.05401,405.17736 332.05341,405.17749 331.98891,405.17749 C 331.93859,405.17749 331.92497,405.17577 331.92862,405.16984 z"
       id="path3566" />
    <path
       style="opacity:1;fill:#ffd000;fill-opacity:1;fill-rule:nonzero;stroke:none;stroke-width:1;stroke-linecap:butt;stroke-linejoin:miter;marker:none;marker-start:none;marker-mid:none;marker-end:none;stroke-miterlimit:4;stroke-dasharray:none;stroke-dashoffset:0;stroke-opacity:1;visibility:visible;display:inline;overflow:visible;enable-background:accumulate"
       d="M 329.78178,409.5807 C 329.78181,409.56574 329.95003,409.08863 330.03188,408.87137 C 330.51144,407.5985 331.156,406.3319 331.87813,405.24337 L 331.9218,405.17754 L 331.98659,405.17752 C 332.03683,405.1775 332.05031,405.17921 332.04655,405.18515 C 332.04388,405.18937 331.99946,405.25621 331.94784,405.3337 C 331.30232,406.30269 330.75299,407.3341 330.31486,408.39969 C 330.189,408.70579 330.08134,408.99283 329.96101,409.34307 L 329.87788,409.58504 L 329.82983,409.58682 C 329.79378,409.58817 329.78177,409.58664 329.78178,409.5807 L 329.78178,409.5807 z"
       id="path3568" />
    <path
       style="opacity:1;fill:#ffd000;fill-opacity:1;fill-rule:nonzero;stroke:none;stroke-width:1;stroke-linecap:butt;stroke-linejoin:miter;marker:none;marker-start:none;marker-mid:none;marker-end:none;stroke-miterlimit:4;stroke-dasharray:none;stroke-dashoffset:0;stroke-opacity:1;visibility:visible;display:inline;overflow:visible;enable-background:accumulate"
       d="M 328.99551,413.24039 C 328.99551,413.21424 329.02107,412.98399 329.04305,412.81213 C 329.17231,411.80149 329.40448,410.7591 329.72288,409.76003 L 329.778,409.58707 L 329.8267,409.58698 C 329.8535,409.58693 329.87541,409.58868 329.87541,409.59087 C 329.87541,409.59306 329.85443,409.66128 329.82878,409.74247 C 329.58276,410.52129 329.40015,411.27324 329.26333,412.07091 C 329.19781,412.45288 329.15819,412.74218 329.10499,413.22716 L 329.10113,413.26239 L 329.04832,413.26239 L 328.99551,413.26239 L 328.99551,413.24039 z"
       id="path3570" />
    <path
       style="opacity:1;fill:#ffd000;fill-opacity:1;fill-rule:nonzero;stroke:none;stroke-width:1;stroke-linecap:butt;stroke-linejoin:miter;marker:none;marker-start:none;marker-mid:none;marker-end:none;stroke-miterlimit:4;stroke-dasharray:none;stroke-dashoffset:0;stroke-opacity:1;visibility:visible;display:inline;overflow:visible;enable-background:accumulate"
       d="M 329.27588,418.28956 C 329.2671,418.26094 329.19309,417.86988 329.16257,417.69076 C 329.00092,416.7416 328.91955,415.77091 328.91944,414.79018 C 328.91938,414.26464 328.93576,413.88878 328.98072,413.38375 L 328.99132,413.26483 L 329.04692,413.26483 L 329.1025,413.26483 L 329.09929,413.2878 C 329.09009,413.35305 329.05796,413.77562 329.04581,413.99075 C 329.01399,414.5545 329.01289,415.24076 329.04291,415.804 C 329.08488,416.59154 329.17955,417.36297 329.32834,418.12982 C 329.34577,418.2197 329.36004,418.29481 329.36004,418.29675 C 329.36004,418.2987 329.34185,418.30029 329.31962,418.30029 C 329.28655,418.30029 329.27859,418.29833 329.27588,418.28956 L 329.27588,418.28956 z"
       id="path3572" />
    <path
       style="opacity:1;fill:#ffd000;fill-opacity:1;fill-rule:nonzero;stroke:none;stroke-width:1;stroke-linecap:butt;stroke-linejoin:miter;marker:none;marker-start:none;marker-mid:none;marker-end:none;stroke-miterlimit:4;stroke-dasharray:none;stroke-dashoffset:0;stroke-opacity:1;visibility:visible;display:inline;overflow:visible;enable-background:accumulate"
       d="M 330.79534,422.65178 C 330.73768,422.53999 330.56997,422.18695 330.47742,421.98252 C 330.04817,421.03441 329.69847,420.03399 329.445,419.02903 C 329.40095,418.85438 329.29531,418.39785 329.28147,418.32234 L 329.27754,418.3009 L 329.32011,418.30109 L 329.36266,418.30127 L 329.38007,418.38684 C 329.42518,418.60853 329.51242,418.97554 329.58391,419.24428 C 329.8877,420.38619 330.28121,421.43286 330.81596,422.52141 C 330.86557,422.62237 330.90616,422.70576 330.90616,422.70671 C 330.90616,422.70767 330.8878,422.70845 330.86536,422.70845 L 330.82458,422.70845 L 330.79534,422.65178 z"
       id="path3574" />
    <path
       style="opacity:1;fill:#ffd000;fill-opacity:1;fill-rule:nonzero;stroke:none;stroke-width:1;stroke-linecap:butt;stroke-linejoin:miter;marker:none;marker-start:none;marker-mid:none;marker-end:none;stroke-miterlimit:4;stroke-dasharray:none;stroke-dashoffset:0;stroke-opacity:1;visibility:visible;display:inline;overflow:visible;enable-background:accumulate"
       d="M 333.88498,427.05994 C 333.77302,426.94178 333.53028,426.67192 333.38215,426.50096 C 332.48535,425.46587 331.69334,424.32575 331.06504,423.16543 C 330.97718,423.00317 330.83072,422.72198 330.83072,422.71552 C 330.83072,422.71397 330.8484,422.71188 330.87,422.71088 L 330.9093,422.70905 L 330.97116,422.82851 C 331.44296,423.73959 331.99464,424.61697 332.62746,425.46262 C 332.96417,425.91259 333.36368,426.36612 334.04782,427.07511 L 334.08788,427.1166 L 334.01325,427.1166 L 333.93865,427.11659 L 333.88498,427.05994 z"
       id="path3576" />
    <path
       style="opacity:1;fill:#ffd000;fill-opacity:1;fill-rule:nonzero;stroke:none;stroke-width:1;stroke-linecap:butt;stroke-linejoin:miter;marker:none;marker-start:none;marker-mid:none;marker-end:none;stroke-miterlimit:4;stroke-dasharray:none;stroke-dashoffset:0;stroke-opacity:1;visibility:visible;display:inline;overflow:visible;enable-background:accumulate"
       d="M 338.14141,426.37912 C 337.88301,426.35713 337.7218,426.32635 337.5192,426.26032 C 337.20785,426.15885 336.87203,425.97527 336.57331,425.74325 C 336.41974,425.62397 336.25271,425.45887 336.1291,425.30412 C 335.75606,424.83716 335.52843,424.20666 335.5122,423.59546 C 335.51073,423.53987 335.51056,423.5068 335.51181,423.52195 C 335.52139,423.6368 335.536,423.77042 335.54629,423.83744 C 335.66427,424.6053 336.02349,425.25556 336.5796,425.70801 C 336.95422,426.01277 337.42388,426.22117 337.91994,426.3027 C 338.08636,426.33005 338.25283,426.34508 338.40694,426.34663 C 338.49075,426.34748 338.49966,426.34859 338.49966,426.3583 C 338.49966,426.36423 338.49331,426.37075 338.48552,426.37286 C 338.46875,426.37738 338.18223,426.38259 338.14141,426.37912 L 338.14141,426.37912 z"
       id="path3578" />
    <path
       style="opacity:1;fill:#ffd000;fill-opacity:1;fill-rule:nonzero;stroke:none;stroke-width:1;stroke-linecap:butt;stroke-linejoin:miter;marker:none;marker-start:none;marker-mid:none;marker-end:none;stroke-miterlimit:4;stroke-dasharray:none;stroke-dashoffset:0;stroke-opacity:1;visibility:visible;display:inline;overflow:visible;enable-background:accumulate"
       d="M 335.64038,422.57341 C 335.6398,422.5612 335.67532,422.45178 335.7093,422.36111 C 335.78574,422.15711 335.86751,421.99383 335.96582,421.84872 C 336.04039,421.73868 336.20463,421.52191 336.2097,421.52684 C 336.21144,421.52855 336.18485,421.57086 336.15059,421.62086 C 335.94555,421.92013 335.77917,422.22937 335.66003,422.53263 C 335.64944,422.55958 335.6406,422.57793 335.64038,422.57341 L 335.64038,422.57341 z"
       id="path3580" />
    <path
       style="opacity:1;fill:#ffd000;fill-opacity:1;fill-rule:nonzero;stroke:none;stroke-width:1;stroke-linecap:butt;stroke-linejoin:miter;marker:none;marker-start:none;marker-mid:none;marker-end:none;stroke-miterlimit:4;stroke-dasharray:none;stroke-dashoffset:0;stroke-opacity:1;visibility:visible;display:inline;overflow:visible;enable-background:accumulate"
       d="M 335.85313,428.88601 C 335.36142,428.49402 334.92832,428.10827 334.44584,427.63259 C 334.24438,427.43395 333.98458,427.16875 333.95326,427.12978 C 333.94516,427.11969 333.94907,427.1191 334.01927,427.11959 L 334.0939,427.12014 L 334.1783,427.20689 C 334.33563,427.36863 334.88477,427.90409 335.08691,428.0929 C 335.46712,428.44804 335.83863,428.7764 336.05645,428.94984 C 336.09183,428.97802 336.1208,429.00215 336.1208,429.00344 C 336.1208,429.00475 336.09439,429.00582 336.06212,429.00582 L 336.00344,429.00582 L 335.85313,428.88601 z"
       id="path3582" />
    <path
       style="opacity:1;fill:#ffd000;fill-opacity:1;fill-rule:nonzero;stroke:none;stroke-width:1;stroke-linecap:butt;stroke-linejoin:miter;marker:none;marker-start:none;marker-mid:none;marker-end:none;stroke-miterlimit:4;stroke-dasharray:none;stroke-dashoffset:0;stroke-opacity:1;visibility:visible;display:inline;overflow:visible;enable-background:accumulate"
       d=""
       id="path3584"
       transform="translate(318.49258,386.48691)" />
    <path
       style="opacity:1;fill:#ffd000;fill-opacity:1;fill-rule:nonzero;stroke:none;stroke-width:1;stroke-linecap:butt;stroke-linejoin:miter;marker:none;marker-start:none;marker-mid:none;marker-end:none;stroke-miterlimit:4;stroke-dasharray:none;stroke-dashoffset:0;stroke-opacity:1;visibility:visible;display:inline;overflow:visible;enable-background:accumulate"
       d="M 335.95739,428.96699 C 335.93146,428.94592 335.82681,428.86098 335.72484,428.77824 C 335.46382,428.56646 335.2846,428.41249 334.99578,428.15183 C 334.76177,427.94066 333.94544,427.13613 333.95535,427.12646 C 333.95656,427.12528 333.98739,427.12436 334.02386,427.12441 L 334.09016,427.12451 L 334.41255,427.43932 C 334.62339,427.64518 334.65226,427.67231 334.49603,427.51775 C 333.66314,426.69383 333.04418,426.01163 332.64354,425.47595 L 332.57606,425.38572 L 332.57606,424.67805 L 332.57606,423.97037 L 334.05887,423.97037 L 335.54168,423.97037 L 335.548,424.00254 C 335.57312,424.13035 335.58438,424.18088 335.60633,424.26441 C 335.68957,424.58106 335.83678,424.90138 336.02106,425.16678 C 336.22515,425.46072 336.4765,425.70004 336.80965,425.91761 C 337.21663,426.18339 337.61276,426.33109 338.03607,426.37487 C 338.1364,426.38525 338.38488,426.38687 338.48709,426.37782 C 339.06047,426.32698 339.67297,426.09113 340.34172,425.66365 C 340.59451,425.50205 340.91288,425.27444 341.16605,425.07429 L 341.19277,425.05317 L 341.19277,427.0295 L 341.19277,429.00582 L 338.66286,429.00582 L 336.13296,429.00582 L 336.05932,428.94611 C 335.75506,428.69947 335.29992,428.29275 334.8858,427.89744 L 334.75382,427.77146 L 334.8638,427.8808 C 335.1318,428.14722 335.67932,428.64164 335.99434,428.90167 C 336.12235,429.00735 336.12077,429.00372 336.03909,429.00484 C 336.00562,429.00531 336.00301,429.00409 335.95739,428.96699 L 335.95739,428.96699 z"
       id="path3586" />
    <path
       style="opacity:1;fill:#ffd000;fill-opacity:1;fill-rule:nonzero;stroke:none;stroke-width:1;stroke-linecap:butt;stroke-linejoin:miter;marker:none;marker-start:none;marker-mid:none;marker-end:none;stroke-miterlimit:4;stroke-dasharray:none;stroke-dashoffset:0;stroke-opacity:1;visibility:visible;display:inline;overflow:visible;enable-background:accumulate"
       d=""
       id="path3588"
       transform="translate(318.49258,386.48691)" />
    <path
       style="opacity:1;fill:#ffd000;fill-opacity:1;fill-rule:nonzero;stroke:none;stroke-width:1;stroke-linecap:butt;stroke-linejoin:miter;marker:none;marker-start:none;marker-mid:none;marker-end:none;stroke-miterlimit:4;stroke-dasharray:none;stroke-dashoffset:0;stroke-opacity:1;visibility:visible;display:inline;overflow:visible;enable-background:accumulate"
       d="M 334.99246,428.15016 C 334.89215,428.0585 334.73796,427.91285 334.59753,427.77709 L 334.44505,427.62969 L 334.44505,426.15081 L 334.44505,424.67193 L 335.09671,424.67302 L 335.74836,424.6741 L 335.77389,424.7297 C 335.95178,425.11712 336.2018,425.444 336.52041,425.70569 C 336.6442,425.80737 336.84362,425.94369 336.99428,426.02959 C 337.08653,426.0822 337.26065,426.16687 337.35406,426.20455 C 337.58806,426.29892 337.85079,426.36093 338.09164,426.37862 C 338.19809,426.38644 338.46394,426.38161 338.55846,426.37013 C 338.97381,426.31971 339.3901,426.18469 339.83526,425.95595 C 340.03422,425.85372 340.15686,425.7813 340.45063,425.5925 L 340.4605,425.58617 L 340.4605,426.88673 L 340.4605,428.18728 L 337.8272,428.18728 L 335.19389,428.18728 L 335.165,428.16085 C 335.1491,428.1463 335.07885,428.08056 335.00887,428.01478 L 334.88163,427.89515 L 334.98693,427.99757 C 335.04485,428.05389 335.11348,428.11963 335.13945,428.14363 L 335.18669,428.18728 L 335.1099,428.18728 L 335.03311,428.18728 L 334.99246,428.15016 z"
       id="path3590" />
    <path
       style="opacity:1;fill:#ffd000;fill-opacity:1;fill-rule:nonzero;stroke:none;stroke-width:1;stroke-linecap:butt;stroke-linejoin:miter;marker:none;marker-start:none;marker-mid:none;marker-end:none;stroke-miterlimit:4;stroke-dasharray:none;stroke-dashoffset:0;stroke-opacity:1;visibility:visible;display:inline;overflow:visible;enable-background:accumulate"
       d="M 334.89917,428.06437 C 334.82678,427.99687 334.69498,427.87148 334.6063,427.78574 L 334.44505,427.62985 L 334.44505,426.15091 L 334.44505,424.67197 L 335.09686,424.67197 L 335.74866,424.67197 L 335.7582,424.69442 C 335.7933,424.77711 335.88075,424.94379 335.93826,425.03761 C 336.00746,425.15052 336.11282,425.29398 336.20339,425.39865 C 336.26542,425.47033 336.44275,425.6425 336.51382,425.70007 C 336.678,425.83304 336.88436,425.97111 337.05633,426.06308 C 337.38925,426.24115 337.69222,426.33693 338.04292,426.37496 C 338.1114,426.38238 338.43366,426.38228 338.508,426.37482 C 338.90647,426.33478 339.30662,426.21365 339.74301,426.001 C 339.96169,425.89445 340.16185,425.77979 340.40566,425.62146 C 340.4298,425.60578 340.452,425.59154 340.45502,425.58981 C 340.45941,425.58727 340.4605,425.84787 340.4605,426.88696 L 340.4605,428.18728 L 337.82725,428.18728 L 335.19399,428.18728 L 335.16944,428.16506 C 335.15594,428.15283 335.09749,428.09865 335.03958,428.04464 C 334.98167,427.99063 334.96093,427.97229 334.99351,428.00388 C 335.02609,428.03548 335.08284,428.08967 335.11964,428.12431 L 335.18653,428.18728 L 335.10867,428.18721 L 335.03081,428.18712 L 334.89917,428.06437 z"
       id="path3592" />
    <path
       style="opacity:1;fill:#ffd000;fill-opacity:1;fill-rule:nonzero;stroke:none;stroke-width:1;stroke-linecap:butt;stroke-linejoin:miter;marker:none;marker-start:none;marker-mid:none;marker-end:none;stroke-miterlimit:4;stroke-dasharray:none;stroke-dashoffset:0;stroke-opacity:1;visibility:visible;display:inline;overflow:visible;enable-background:accumulate"
       d="M 334.90785,428.07313 C 334.84034,428.01034 334.70859,427.88487 334.61508,427.79431 L 334.44505,427.62964 L 334.44505,426.15079 L 334.44505,424.67193 L 335.09734,424.67302 L 335.74964,424.6741 L 335.77052,424.71985 C 335.97908,425.17697 336.27687,425.53792 336.68713,425.8309 C 336.96273,426.0277 337.25975,426.18073 337.53614,426.26832 C 337.62271,426.29574 337.72954,426.32404 337.73713,426.32155 C 337.74,426.3206 337.73447,426.31839 337.72482,426.31663 C 337.68873,426.31005 337.54241,426.26687 337.47253,426.24217 C 337.22716,426.15546 336.98565,426.03053 336.74418,425.86539 C 336.58248,425.75481 336.47175,425.6635 336.33602,425.52881 C 336.15521,425.34941 336.02957,425.1864 335.90155,424.96508 C 335.8573,424.88862 335.75695,424.68614 335.75695,424.67337 C 335.75695,424.67259 335.76398,424.67197 335.77257,424.67197 C 335.78804,424.67197 335.78836,424.67236 335.80629,424.71153 C 335.83168,424.76699 335.89936,424.89592 335.93496,424.95662 C 336.10949,425.25418 336.33859,425.51728 336.61474,425.73725 C 336.80627,425.88983 337.06593,426.03817 337.31019,426.13455 C 337.64608,426.2671 337.99336,426.33622 338.37638,426.34677 C 338.43309,426.34832 338.48427,426.35133 338.49012,426.35345 C 338.50014,426.35706 338.50032,426.3577 338.49327,426.36459 C 338.48724,426.37045 338.47434,426.37237 338.42779,426.37432 L 338.36979,426.37675 L 338.41367,426.37753 C 338.46646,426.37847 338.5281,426.37314 338.63086,426.35881 C 339.16213,426.28467 339.73053,426.05287 340.34121,425.6613 C 340.39744,425.62525 340.4473,425.59373 340.45199,425.59129 C 340.46041,425.58689 340.4605,425.60125 340.4605,426.88707 L 340.4605,428.18728 L 337.82706,428.18728 L 335.19363,428.18728 L 335.18024,428.17552 L 335.16685,428.16377 L 335.17748,428.17552 L 335.18809,428.18728 L 335.10934,428.18728 L 335.0306,428.18728 L 334.90785,428.07313 z M 335.11417,428.11459 C 335.09012,428.09106 335.06947,428.07182 335.06826,428.07182 C 335.06706,428.07182 335.08574,428.09106 335.10978,428.11459 C 335.13382,428.13811 335.15448,428.15735 335.15569,428.15735 C 335.1569,428.15735 335.1382,428.13811 335.11417,428.11459 z M 338.32043,426.37939 C 338.2957,426.37864 338.25522,426.37864 338.23049,426.37939 C 338.20575,426.38016 338.226,426.38079 338.27546,426.38079 C 338.32493,426.38079 338.34517,426.38016 338.32043,426.37939 z M 338.0398,426.36747 C 337.93634,426.35607 337.87668,426.34738 337.8038,426.33306 C 337.77484,426.32737 337.74918,426.32288 337.74675,426.32308 C 337.72636,426.32478 337.90496,426.35743 337.98807,426.36718 C 338.06706,426.37646 338.0724,426.37692 338.10214,426.37708 C 338.11663,426.37717 338.08858,426.37285 338.0398,426.36747 L 338.0398,426.36747 z"
       id="path3594" />
    <path
       style="opacity:1;fill:#ffd000;fill-opacity:1;fill-rule:nonzero;stroke:none;stroke-width:1;stroke-linecap:butt;stroke-linejoin:miter;marker:none;marker-start:none;marker-mid:none;marker-end:none;stroke-miterlimit:4;stroke-dasharray:none;stroke-dashoffset:0;stroke-opacity:1;visibility:visible;display:inline;overflow:visible;enable-background:accumulate"
       d="M 343.02465,432.1102 C 341.94926,431.87524 341.1965,431.66904 340.40741,431.39332 C 339.78707,431.17655 339.2444,430.95114 338.6743,430.67343 C 338.12348,430.40511 337.62079,430.1222 337.1135,429.79503 L 337.0774,429.77175 L 337.07729,429.72792 C 337.07724,429.70381 337.07844,429.68408 337.07996,429.68408 C 337.08148,429.68408 337.13034,429.71462 337.18856,429.75194 C 338.14715,430.36652 339.18138,430.86814 340.30827,431.26503 C 341.10065,431.54412 342.02156,431.8009 342.96869,432.00688 L 343.09264,432.03383 L 343.09264,432.07777 C 343.09264,432.12945 343.09896,432.12644 343.02465,432.1102 L 343.02465,432.1102 z"
       id="path3596" />
    <path
       style="opacity:1;fill:#ffd000;fill-opacity:1;fill-rule:nonzero;stroke:none;stroke-width:1;stroke-linecap:butt;stroke-linejoin:miter;marker:none;marker-start:none;marker-mid:none;marker-end:none;stroke-miterlimit:4;stroke-dasharray:none;stroke-dashoffset:0;stroke-opacity:1;visibility:visible;display:inline;overflow:visible;enable-background:accumulate"
       d="M 336.97453,429.70374 C 336.67052,429.50196 336.37626,429.29194 336.08873,429.07153 L 336.01027,429.01138 L 336.04924,429.00859 C 336.07069,429.00705 336.09641,429.00524 336.10641,429.00455 C 336.12326,429.00339 336.12732,429.0055 336.16126,429.03319 C 336.31882,429.16167 336.63762,429.38917 336.96137,429.60414 L 337.07983,429.6828 L 337.07764,429.72676 L 337.07544,429.77072 L 336.97453,429.70374 z"
       id="path3598" />
    <path
       style="opacity:1;fill:#ffd000;fill-opacity:1;fill-rule:nonzero;stroke:none;stroke-width:1;stroke-linecap:butt;stroke-linejoin:miter;marker:none;marker-start:none;marker-mid:none;marker-end:none;stroke-miterlimit:4;stroke-dasharray:none;stroke-dashoffset:0;stroke-opacity:1;visibility:visible;display:inline;overflow:visible;enable-background:accumulate"
       d=""
       id="path3600"
       transform="translate(318.49258,386.48691)" />
    <path
       style="opacity:1;fill:#ffd000;fill-opacity:1;fill-rule:nonzero;stroke:none;stroke-width:1;stroke-linecap:butt;stroke-linejoin:miter;marker:none;marker-start:none;marker-mid:none;marker-end:none;stroke-miterlimit:4;stroke-dasharray:none;stroke-dashoffset:0;stroke-opacity:1;visibility:visible;display:inline;overflow:visible;enable-background:accumulate"
       d="M 347.09155,432.75514 C 345.70309,432.57671 344.90621,432.45975 344.07285,432.31213 C 343.62646,432.23305 343.0824,432.1257 343.09007,432.11823 C 343.09246,432.11592 343.0944,432.09599 343.0944,432.07395 C 343.0944,432.03781 343.09515,432.03411 343.10208,432.03611 C 343.11774,432.04062 343.52732,432.12491 343.67357,432.15371 C 344.13616,432.24483 344.61685,432.33089 345.12149,432.41289 C 346.21113,432.58997 346.85217,432.66503 347.44584,432.68507 L 347.6049,432.69043 L 347.6049,432.74947 C 347.6049,432.80412 347.60428,432.80853 347.59676,432.80853 C 347.59229,432.80853 347.57699,432.80939 347.56277,432.81045 C 347.54493,432.81178 347.39852,432.79459 347.09155,432.75514 L 347.09155,432.75514 z"
       id="path3602" />
    <path
       style="opacity:1;fill:#ffd000;fill-opacity:1;fill-rule:nonzero;stroke:none;stroke-width:1;stroke-linecap:butt;stroke-linejoin:miter;marker:none;marker-start:none;marker-mid:none;marker-end:none;stroke-miterlimit:4;stroke-dasharray:none;stroke-dashoffset:0;stroke-opacity:1;visibility:visible;display:inline;overflow:visible;enable-background:accumulate"
       d="M 347.60578,432.7476 L 347.60712,432.6875 L 347.69354,432.69029 C 347.79147,432.69347 348.08455,432.68678 348.2648,432.67727 C 348.7887,432.6496 349.37375,432.58083 350.28749,432.43951 C 350.94664,432.33759 351.49026,432.2317 352.02154,432.10181 C 352.06912,432.09018 352.11009,432.08065 352.1126,432.08065 C 352.11546,432.08065 352.11714,432.09809 352.11714,432.1277 C 352.11714,432.15358 352.11632,432.17474 352.11532,432.17474 C 352.11432,432.17474 352.05558,432.1883 351.9848,432.20487 C 350.70359,432.50476 349.31804,432.70144 347.82822,432.79493 C 347.71722,432.80188 347.62146,432.80761 347.61542,432.80763 L 347.60446,432.80769 L 347.60578,432.7476 z"
       id="path3604" />
    <path
       style="opacity:1;fill:#ffd000;fill-opacity:1;fill-rule:nonzero;stroke:none;stroke-width:1;stroke-linecap:butt;stroke-linejoin:miter;marker:none;marker-start:none;marker-mid:none;marker-end:none;stroke-miterlimit:4;stroke-dasharray:none;stroke-dashoffset:0;stroke-opacity:1;visibility:visible;display:inline;overflow:visible;enable-background:accumulate"
       d="M 352.1178,432.12985 C 352.11743,432.1075 352.11694,432.08701 352.1167,432.0843 C 352.11643,432.08137 352.15988,432.06834 352.22376,432.05215 C 353.34362,431.76839 354.43396,431.39287 355.39383,430.96036 C 355.44692,430.93644 355.49289,430.9158 355.49599,430.9145 C 355.50043,430.91264 355.50136,430.92242 355.50038,430.96055 L 355.49913,431.00899 L 355.39163,431.0577 C 354.56789,431.43092 353.69707,431.74563 352.78757,431.99877 C 352.554,432.06378 352.14144,432.17047 352.12364,432.17047 C 352.12006,432.17047 352.11825,432.15785 352.1178,432.12985 L 352.1178,432.12985 z"
       id="path3606" />
    <path
       style="opacity:1;fill:#ffd000;fill-opacity:1;fill-rule:nonzero;stroke:none;stroke-width:1;stroke-linecap:butt;stroke-linejoin:miter;marker:none;marker-start:none;marker-mid:none;marker-end:none;stroke-miterlimit:4;stroke-dasharray:none;stroke-dashoffset:0;stroke-opacity:1;visibility:visible;display:inline;overflow:visible;enable-background:accumulate"
       d="M 355.50096,430.95954 L 355.50221,430.91183 L 355.62506,430.8547 C 356.14019,430.61517 356.65514,430.3396 357.10369,430.06341 C 357.39121,429.88638 357.7705,429.6305 358.08919,429.39857 L 358.24103,429.28807 L 358.3211,429.28807 L 358.40115,429.28807 L 358.34475,429.32998 C 358.00065,429.58564 357.52402,429.90422 357.12125,430.14778 C 356.8217,430.32891 356.49797,430.51017 356.16473,430.68331 C 356.05079,430.74252 355.50988,431.00725 355.50285,431.00725 C 355.50113,431.00725 355.50028,430.98579 355.50096,430.95954 L 355.50096,430.95954 z"
       id="path3608" />
    <path
       style="opacity:1;fill:#ffd000;fill-opacity:1;fill-rule:nonzero;stroke:none;stroke-width:1;stroke-linecap:butt;stroke-linejoin:miter;marker:none;marker-start:none;marker-mid:none;marker-end:none;stroke-miterlimit:4;stroke-dasharray:none;stroke-dashoffset:0;stroke-opacity:1;visibility:visible;display:inline;overflow:visible;enable-background:accumulate"
       d="M 358.3845,429.17961 C 358.70013,428.93987 358.99428,428.70128 359.28742,428.44724 C 359.98838,427.83972 360.61657,427.20413 361.26715,426.44413 L 361.27904,426.43026 L 361.34528,426.43144 L 361.41151,426.43262 L 361.27416,426.593 C 360.89414,427.03671 360.56238,427.3904 360.13874,427.8035 C 359.75779,428.17496 359.46484,428.43902 359.08778,428.75073 C 358.8757,428.92608 358.58717,429.15252 358.42704,429.26933 L 358.4025,429.28722 L 358.32267,429.28722 L 358.24284,429.28722 L 358.3845,429.17961 z"
       id="path3610" />
    <path
       style="opacity:1;fill:#ffd000;fill-opacity:1;fill-rule:nonzero;stroke:none;stroke-width:1;stroke-linecap:butt;stroke-linejoin:miter;marker:none;marker-start:none;marker-mid:none;marker-end:none;stroke-miterlimit:4;stroke-dasharray:none;stroke-dashoffset:0;stroke-opacity:1;visibility:visible;display:inline;overflow:visible;enable-background:accumulate"
       d="M 361.28551,426.42215 C 361.31955,426.38346 361.50381,426.15877 361.59675,426.0426 C 361.90773,425.6539 362.21338,425.23901 362.4868,424.83447 C 362.54324,424.75097 362.59165,424.68019 362.59438,424.67718 C 362.59805,424.67313 362.6144,424.67202 362.6571,424.67291 L 362.71486,424.6741 L 362.6965,424.7019 C 362.32983,425.25688 361.93861,425.78812 361.518,426.30215 L 361.41411,426.42912 L 361.3465,426.42937 C 361.28254,426.42961 361.27928,426.42923 361.28551,426.42215 L 361.28551,426.42215 z"
       id="path3612" />
    <path
       style="opacity:1;fill:#ffd000;fill-opacity:1;fill-rule:nonzero;stroke:none;stroke-width:1;stroke-linecap:butt;stroke-linejoin:miter;marker:none;marker-start:none;marker-mid:none;marker-end:none;stroke-miterlimit:4;stroke-dasharray:none;stroke-dashoffset:0;stroke-opacity:1;visibility:visible;display:inline;overflow:visible;enable-background:accumulate"
       d="M 362.61085,424.65015 C 363.01247,424.03645 363.33249,423.49017 363.64113,422.89148 L 363.74306,422.69375 L 363.79652,422.6937 L 363.84999,422.69364 L 363.82018,422.75458 C 363.56628,423.27359 363.12779,424.03975 362.77444,424.58172 L 362.71589,424.67155 L 362.65637,424.67155 L 362.59686,424.67155 L 362.61085,424.65015 z"
       id="path3614" />
    <path
       style="opacity:1;fill:#ffd000;fill-opacity:1;fill-rule:nonzero;stroke:none;stroke-width:1;stroke-linecap:butt;stroke-linejoin:miter;marker:none;marker-start:none;marker-mid:none;marker-end:none;stroke-miterlimit:4;stroke-dasharray:none;stroke-dashoffset:0;stroke-opacity:1;visibility:visible;display:inline;overflow:visible;enable-background:accumulate"
       d="M 363.74526,422.69028 C 363.74526,422.68937 363.76719,422.64462 363.79401,422.59085 C 364.12952,421.91796 364.48926,421.05698 364.72785,420.35586 L 364.75515,420.27568 L 364.80507,420.27568 L 364.85499,420.27568 L 364.79769,420.43926 C 364.71139,420.68557 364.71135,420.68568 364.64996,420.85087 C 364.44925,421.3908 364.20177,421.97099 363.95584,422.47809 C 363.91192,422.56866 363.87079,422.65381 363.86443,422.66733 L 363.85287,422.69192 L 363.79907,422.69192 C 363.76947,422.69192 363.74526,422.69119 363.74526,422.69028 L 363.74526,422.69028 z"
       id="path3616" />
    <path
       style="opacity:1;fill:#ffd000;fill-opacity:1;fill-rule:nonzero;stroke:none;stroke-width:1;stroke-linecap:butt;stroke-linejoin:miter;marker:none;marker-start:none;marker-mid:none;marker-end:none;stroke-miterlimit:4;stroke-dasharray:none;stroke-dashoffset:0;stroke-opacity:1;visibility:visible;display:inline;overflow:visible;enable-background:accumulate"
       d="M 364.75791,420.2706 C 364.75791,420.26874 364.76787,420.23844 364.78004,420.20324 C 364.81915,420.09005 364.9313,419.73376 364.98328,419.55764 C 365.18829,418.86278 365.35347,418.15274 365.47276,417.45358 C 365.50587,417.25951 365.55068,416.96745 365.56526,416.8506 C 365.57024,416.81059 365.57529,416.77355 365.57645,416.76826 C 365.57848,416.75908 365.58054,416.75864 365.62158,416.75864 L 365.66456,416.75864 L 365.65255,416.85165 C 365.53073,417.79522 365.30033,418.84435 365.00101,419.81836 C 364.9513,419.98016 364.95302,419.97473 364.89403,420.15315 L 364.85408,420.27396 L 364.80601,420.27396 C 364.77956,420.27396 364.75791,420.27244 364.75791,420.2706 z"
       id="path3618" />
    <path
       style="opacity:1;fill:#ffd000;fill-opacity:1;fill-rule:nonzero;stroke:none;stroke-width:1;stroke-linecap:butt;stroke-linejoin:miter;marker:none;marker-start:none;marker-mid:none;marker-end:none;stroke-miterlimit:4;stroke-dasharray:none;stroke-dashoffset:0;stroke-opacity:1;visibility:visible;display:inline;overflow:visible;enable-background:accumulate"
       d="M 365.5784,416.75456 C 365.57841,416.7516 365.58334,416.71214 365.58936,416.66688 C 365.6063,416.53954 365.63781,416.24375 365.6551,416.05003 C 365.69824,415.56628 365.72343,415.01399 365.72309,414.55964 C 365.72294,414.36083 365.71669,414.02277 365.71177,413.94702 L 365.7088,413.90105 L 365.74851,413.90105 L 365.78823,413.90105 L 365.79086,413.93633 C 365.8021,414.08687 365.80614,414.73854 365.7977,415.03862 C 365.78255,415.57685 365.73772,416.17784 365.6764,416.6645 L 365.66471,416.75725 L 365.62156,416.75858 C 365.5891,416.7596 365.5784,416.75859 365.5784,416.75456 L 365.5784,416.75456 z"
       id="path3620" />
    <path
       style="opacity:1;fill:#ffd000;fill-opacity:1;fill-rule:nonzero;stroke:none;stroke-width:1;stroke-linecap:butt;stroke-linejoin:miter;marker:none;marker-start:none;marker-mid:none;marker-end:none;stroke-miterlimit:4;stroke-dasharray:none;stroke-dashoffset:0;stroke-opacity:1;visibility:visible;display:inline;overflow:visible;enable-background:accumulate"
       d="M 365.70822,413.84053 C 365.68055,413.24289 365.62525,412.67401 365.5414,412.12457 C 365.50843,411.9085 365.4487,411.56561 365.43136,411.49271 C 365.42911,411.48327 365.42985,411.48309 365.46863,411.48309 C 365.4904,411.48309 365.5082,411.48417 365.5082,411.48547 C 365.5082,411.48679 365.51804,411.53923 365.53007,411.60202 C 365.65991,412.28032 365.75505,413.10529 365.78746,413.83412 L 365.79036,413.89934 L 365.75066,413.89934 L 365.71094,413.89934 L 365.70822,413.84053 z"
       id="path3622" />
    <path
       style="opacity:1;fill:#ffd000;fill-opacity:1;fill-rule:nonzero;stroke:none;stroke-width:1;stroke-linecap:butt;stroke-linejoin:miter;marker:none;marker-start:none;marker-mid:none;marker-end:none;stroke-miterlimit:4;stroke-dasharray:none;stroke-dashoffset:0;stroke-opacity:1;visibility:visible;display:inline;overflow:visible;enable-background:accumulate"
       d="M 365.40943,411.37958 C 365.28216,410.74146 365.07757,410.00213 364.85723,409.38415 C 364.80213,409.22964 364.71619,409.00235 364.67449,408.90091 C 364.66435,408.87621 364.65503,408.85353 364.65381,408.85051 C 364.65204,408.84619 364.66127,408.84526 364.69658,408.84622 L 364.74161,408.84745 L 364.76959,408.91801 C 364.89899,409.24436 365.07743,409.77673 365.19602,410.19029 C 365.30827,410.58176 365.43479,411.10218 365.49494,411.4198 C 365.50006,411.44685 365.50523,411.47218 365.5064,411.47611 C 365.50832,411.4824 365.50397,411.48319 365.46928,411.48294 L 365.42998,411.48263 L 365.40943,411.37958 z"
       id="path3624" />
    <path
       style="opacity:1;fill:#ffd000;fill-opacity:1;fill-rule:nonzero;stroke:none;stroke-width:1;stroke-linecap:butt;stroke-linejoin:miter;marker:none;marker-start:none;marker-mid:none;marker-end:none;stroke-miterlimit:4;stroke-dasharray:none;stroke-dashoffset:0;stroke-opacity:1;visibility:visible;display:inline;overflow:visible;enable-background:accumulate"
       d="M 364.64817,408.83718 C 364.51427,408.49808 364.25887,407.9433 364.04277,407.52215 C 363.90083,407.24556 363.69182,406.86553 363.52203,406.57539 C 363.4754,406.49569 363.43724,406.42971 363.43724,406.42878 C 363.43724,406.42786 363.46111,406.42764 363.49027,406.4283 L 363.5433,406.4295 L 363.62899,406.57704 C 363.90864,407.05854 364.11679,407.44771 364.30258,407.83648 C 364.45682,408.15921 364.62231,408.53909 364.72954,408.8166 L 364.73977,408.84305 L 364.69566,408.8444 C 364.65492,408.84564 364.65129,408.84509 364.64817,408.83718 L 364.64817,408.83718 z"
       id="path3626" />
    <path
       style="opacity:1;fill:#ffd000;fill-opacity:1;fill-rule:nonzero;stroke:none;stroke-width:1;stroke-linecap:butt;stroke-linejoin:miter;marker:none;marker-start:none;marker-mid:none;marker-end:none;stroke-miterlimit:4;stroke-dasharray:none;stroke-dashoffset:0;stroke-opacity:1;visibility:visible;display:inline;overflow:visible;enable-background:accumulate"
       d="M 363.33868,406.26794 C 363.02104,405.74323 362.65737,405.19769 362.27891,404.67825 C 362.18658,404.55148 361.97175,404.26284 361.94862,404.23445 C 361.94504,404.23006 361.95731,404.2292 362.01123,404.23016 L 362.07827,404.23134 L 362.16394,404.34681 C 362.62173,404.96386 363.06019,405.62231 363.47216,406.31143 C 363.50646,406.3688 363.53555,406.41835 363.53681,406.42155 C 363.53866,406.42625 363.52913,406.42733 363.48708,406.42724 L 363.43506,406.42713 L 363.33868,406.26794 z"
       id="path3628" />
    <path
       style="opacity:1;fill:#ffd000;fill-opacity:1;fill-rule:nonzero;stroke:none;stroke-width:1;stroke-linecap:butt;stroke-linejoin:miter;marker:none;marker-start:none;marker-mid:none;marker-end:none;stroke-miterlimit:4;stroke-dasharray:none;stroke-dashoffset:0;stroke-opacity:1;visibility:visible;display:inline;overflow:visible;enable-background:accumulate"
       d="M 361.84103,404.09654 C 361.62772,403.82118 361.36248,403.49731 361.12379,403.22081 C 360.96515,403.03702 360.75256,402.79856 360.66341,402.70441 L 360.65024,402.69051 L 360.7224,402.69074 L 360.79457,402.69098 L 360.91143,402.82012 C 361.22318,403.16462 361.5089,403.50242 361.79113,403.86015 C 361.8973,403.99474 362.07357,404.22425 362.07357,404.22792 C 362.07357,404.2291 362.04444,404.22997 362.00885,404.22985 L 361.94414,404.22966 L 361.84103,404.09654 z"
       id="path3630" />
    <path
       style="opacity:1;fill:#ffd000;fill-opacity:1;fill-rule:nonzero;stroke:none;stroke-width:1;stroke-linecap:butt;stroke-linejoin:miter;marker:none;marker-start:none;marker-mid:none;marker-end:none;stroke-miterlimit:4;stroke-dasharray:none;stroke-dashoffset:0;stroke-opacity:1;visibility:visible;display:inline;overflow:visible;enable-background:accumulate"
       d="M 360.5879,402.6232 C 360.38408,402.40115 360.02087,402.03532 359.78008,401.80953 C 359.69355,401.72839 359.60594,401.64614 359.58539,401.62678 L 359.54804,401.59156 L 359.61309,401.59149 L 359.67814,401.59143 L 359.76878,401.67376 C 360.04249,401.92229 360.39378,402.26742 360.6535,402.54297 C 360.71113,402.60412 360.76627,402.66234 360.77602,402.67233 L 360.79377,402.69051 L 360.72155,402.69031 L 360.64934,402.69011 L 360.5879,402.6232 z"
       id="path3632" />
    <path
       style="opacity:1;fill:#ffd000;fill-opacity:1;fill-rule:nonzero;stroke:none;stroke-width:1;stroke-linecap:butt;stroke-linejoin:miter;marker:none;marker-start:none;marker-mid:none;marker-end:none;stroke-miterlimit:4;stroke-dasharray:none;stroke-dashoffset:0;stroke-opacity:1;visibility:visible;display:inline;overflow:visible;enable-background:accumulate"
       d="M 359.40501,401.46568 C 358.85836,400.98114 358.35117,400.59787 357.80352,400.25548 C 357.2053,399.88147 356.48741,399.50819 355.69526,399.1592 C 355.61924,399.12573 355.5452,399.09347 355.53072,399.08754 L 355.50439,399.07675 L 355.50314,399.03146 C 355.50246,399.00655 355.50318,398.98616 355.50474,398.98616 C 355.51269,398.98616 355.87037,399.14402 356.08356,399.24163 C 356.42981,399.40014 356.72529,399.54425 356.9567,399.66745 C 357.82696,400.13079 358.67508,400.71909 359.47874,401.4169 C 359.56031,401.48773 359.63829,401.55573 359.65204,401.56802 L 359.67704,401.59037 L 359.61122,401.59026 L 359.54542,401.59014 L 359.40501,401.46568 z"
       id="path3634" />
    <path
       style="opacity:1;fill:#ffd000;fill-opacity:1;fill-rule:nonzero;stroke:none;stroke-width:1;stroke-linecap:butt;stroke-linejoin:miter;marker:none;marker-start:none;marker-mid:none;marker-end:none;stroke-miterlimit:4;stroke-dasharray:none;stroke-dashoffset:0;stroke-opacity:1;visibility:visible;display:inline;overflow:visible;enable-background:accumulate"
       d="M 355.48597,399.06897 C 355.47993,399.06579 355.41971,399.04007 355.35215,399.01181 C 354.15757,398.51234 352.86438,398.08858 351.54586,397.76455 L 351.36817,397.72089 L 351.36692,397.67492 C 351.36577,397.63249 351.36627,397.62915 351.37351,397.63132 C 351.37781,397.63262 351.42378,397.64348 351.47566,397.65545 C 352.74697,397.94876 354.08751,398.38633 355.35788,398.92261 L 355.50132,398.98316 L 355.50257,399.02914 C 355.50326,399.05443 355.50227,399.07503 355.50038,399.07494 C 355.49848,399.07485 355.492,399.07216 355.48597,399.06897 L 355.48597,399.06897 z"
       id="path3636" />
    <path
       style="opacity:1;fill:#ffd000;fill-opacity:1;fill-rule:nonzero;stroke:none;stroke-width:1;stroke-linecap:butt;stroke-linejoin:miter;marker:none;marker-start:none;marker-mid:none;marker-end:none;stroke-miterlimit:4;stroke-dasharray:none;stroke-dashoffset:0;stroke-opacity:1;visibility:visible;display:inline;overflow:visible;enable-background:accumulate"
       d="M 351.27954,397.70099 C 351.114,397.66029 350.70947,397.57162 350.50951,397.53218 C 349.67405,397.36742 348.60629,397.26387 347.44146,397.23464 L 347.22976,397.22933 L 347.22976,397.17183 L 347.22976,397.11434 L 347.34054,397.11725 C 348.62996,397.15129 349.89799,397.30821 351.21683,397.59689 C 351.29696,397.61442 351.36359,397.62878 351.36491,397.62878 C 351.36622,397.62878 351.3673,397.64899 351.3673,397.67368 C 351.3673,397.72739 351.37596,397.72469 351.27954,397.70099 L 351.27954,397.70099 z"
       id="path3638" />
    <path
       style="opacity:1;fill:#ffd000;fill-opacity:1;fill-rule:nonzero;stroke:none;stroke-width:1;stroke-linecap:butt;stroke-linejoin:miter;marker:none;marker-start:none;marker-mid:none;marker-end:none;stroke-miterlimit:4;stroke-dasharray:none;stroke-dashoffset:0;stroke-opacity:1;visibility:visible;display:inline;overflow:visible;enable-background:accumulate"
       d="M 342.7175,397.63964 L 342.7175,397.60498 L 342.83707,397.57627 C 343.88525,397.3247 345.01034,397.17157 346.14206,397.12643 C 346.48316,397.11283 347.00619,397.10655 347.16807,397.11412 L 347.22799,397.11692 L 347.22799,397.17293 L 347.22799,397.22892 L 346.93293,397.22741 C 345.55618,397.22035 344.26882,397.32528 343.37345,397.51754 C 343.25252,397.54352 343.00392,397.60219 342.84145,397.6431 L 342.7175,397.67431 L 342.7175,397.63964 z"
       id="path3640" />
    <path
       style="opacity:1;fill:#ffd000;fill-opacity:1;fill-rule:nonzero;stroke:none;stroke-width:1;stroke-linecap:butt;stroke-linejoin:miter;marker:none;marker-start:none;marker-mid:none;marker-end:none;stroke-miterlimit:4;stroke-dasharray:none;stroke-dashoffset:0;stroke-opacity:1;visibility:visible;display:inline;overflow:visible;enable-background:accumulate"
       d="M 338.9573,399.47239 L 338.9573,399.11359 L 338.97375,399.10398 C 339.00503,399.08569 339.39517,398.89443 339.53249,398.83006 C 340.63945,398.31111 341.78698,397.90493 342.95492,397.61867 C 343.05481,397.59419 343.16886,397.5668 343.20836,397.55782 C 343.24788,397.54883 343.27833,397.54086 343.27603,397.54011 C 343.27043,397.53828 343.10515,397.57663 342.89392,397.62878 C 342.79862,397.65231 342.71985,397.67156 342.71889,397.67156 C 342.71792,397.67156 342.71771,397.65678 342.71842,397.63871 L 342.7197,397.60587 L 342.825,397.58096 C 343.42654,397.43866 343.96688,397.33961 344.56909,397.26124 C 344.69958,397.24425 344.95714,397.21396 344.97097,397.21396 C 344.97195,397.21396 344.97275,397.23216 344.97275,397.25439 L 344.97275,397.29482 L 344.95848,397.29698 C 344.95064,397.29817 344.91758,397.30126 344.885,397.30386 C 344.57174,397.32882 344.13106,397.38204 343.821,397.43235 C 343.65958,397.45854 343.3671,397.51499 343.30325,397.53227 C 343.26093,397.54374 343.29102,397.5388 343.37898,397.51986 C 343.78567,397.43227 344.33858,397.3543 344.86525,397.31026 C 344.9087,397.30662 344.95064,397.30283 344.95848,397.30184 L 344.97275,397.30002 L 344.97275,398.56562 L 344.97275,399.8312 L 341.96503,399.8312 L 338.9573,399.8312 L 338.9573,399.47239 z"
       id="path3642" />
    <path
       style="opacity:1;fill:#ffd000;fill-opacity:1;fill-rule:nonzero;stroke:none;stroke-width:1;stroke-linecap:butt;stroke-linejoin:miter;marker:none;marker-start:none;marker-mid:none;marker-end:none;stroke-miterlimit:4;stroke-dasharray:none;stroke-dashoffset:0;stroke-opacity:1;visibility:visible;display:inline;overflow:visible;enable-background:accumulate"
       d="M 338.95743,399.07536 L 338.95757,399.04218 L 339.01776,399.01067 C 340.06855,398.46069 341.08585,398.05537 342.21096,397.73847 C 342.3907,397.68785 342.6987,397.6074 342.71281,397.6074 C 342.71575,397.6074 342.7175,397.61997 342.7175,397.64086 L 342.7175,397.67432 L 342.57819,397.7118 C 341.54171,397.99055 340.54141,398.35561 339.56279,398.81231 C 339.40111,398.88776 339.15694,399.00644 339.03298,399.06981 L 338.9573,399.10852 L 338.95743,399.07536 z"
       id="path3644" />
    <path
       style="opacity:1;fill:#ffd000;fill-opacity:1;fill-rule:nonzero;stroke:none;stroke-width:1;stroke-linecap:butt;stroke-linejoin:miter;marker:none;marker-start:none;marker-mid:none;marker-end:none;stroke-miterlimit:4;stroke-dasharray:none;stroke-dashoffset:0;stroke-opacity:1;visibility:visible;display:inline;overflow:visible;enable-background:accumulate"
       d="M 337.06607,400.13949 L 337.0431,400.13698 L 337.17137,400.05728 C 337.44282,399.88861 337.8078,399.67632 338.23421,399.43908 C 338.44635,399.32105 338.81486,399.11892 338.92199,399.06185 L 338.95599,399.04373 L 338.95599,399.07589 L 338.95599,399.10805 L 338.92856,399.12266 C 338.91348,399.13069 338.84486,399.1667 338.77608,399.20269 C 338.28669,399.45876 337.72241,399.78975 337.26444,400.08937 L 337.18189,400.14339 L 337.13547,400.14269 C 337.10994,400.14231 337.07871,400.14087 337.06607,400.13949 L 337.06607,400.13949 z"
       id="path3646" />
  </g>
</svg>
