<?xml version="1.0" encoding="UTF-8" standalone="no"?>
<!-- Created with Inkscape (http://www.inkscape.org/) -->
<svg
   xmlns:dc="http://purl.org/dc/elements/1.1/"
   xmlns:cc="http://creativecommons.org/ns#"
   xmlns:rdf="http://www.w3.org/1999/02/22-rdf-syntax-ns#"
   xmlns:svg="http://www.w3.org/2000/svg"
   xmlns="http://www.w3.org/2000/svg"
   xmlns:sodipodi="http://sodipodi.sourceforge.net/DTD/sodipodi-0.dtd"
   xmlns:inkscape="http://www.inkscape.org/namespaces/inkscape"
   version="1.0"
   width="55"
   height="55"
   id="svg2381"
   sodipodi:version="0.32"
   inkscape:version="0.46"
   sodipodi:docname="butiaoff.svg"
   inkscape:output_extension="org.inkscape.output.svg.inkscape">
  <metadata
     id="metadata3470">
    <rdf:RDF>
      <cc:Work
         rdf:about="">
        <dc:format>image/svg+xml</dc:format>
        <dc:type
           rdf:resource="http://purl.org/dc/dcmitype/StillImage" />
      </cc:Work>
    </rdf:RDF>
  </metadata>
  <sodipodi:namedview
     inkscape:window-height="721"
     inkscape:window-width="960"
     inkscape:pageshadow="2"
     inkscape:pageopacity="0.0"
     guidetolerance="10.0"
     gridtolerance="10.0"
     objecttolerance="10.0"
     borderopacity="1.0"
     bordercolor="#666666"
     pagecolor="#ffffff"
     id="base"
     showgrid="false"
     inkscape:zoom="8"
     inkscape:cx="18.371413"
     inkscape:cy="28.257305"
     inkscape:window-x="0"
     inkscape:window-y="62"
     inkscape:current-layer="svg2381" />
  <defs
     id="defs2383">
    <inkscape:perspective
       sodipodi:type="inkscape:persp3d"
       inkscape:vp_x="0 : 250.18124 : 1"
       inkscape:vp_y="0 : 1000 : 0"
       inkscape:vp_z="487.29123 : 250.18124 : 1"
       inkscape:persp3d-origin="243.64561 : 166.7875 : 1"
       id="perspective3472" />
    <inkscape:perspective
       id="perspective2505"
       inkscape:persp3d-origin="27.5 : 18.333333 : 1"
       inkscape:vp_z="55 : 27.5 : 1"
       inkscape:vp_y="0 : 1000 : 0"
       inkscape:vp_x="0 : 27.5 : 1"
       sodipodi:type="inkscape:persp3d" />
  </defs>
  <g
     inkscape:groupmode="layer"
     id="layer3"
     inkscape:label="fondo">
    <g
       id="g2508"
       transform="translate(-15.625,-12.375)">
      <rect
         style="fill:#282828;fill-opacity:1;fill-rule:nonzero;stroke:none"
         id="rect3269"
         y="12.625"
         x="15.875"
         height="55"
         width="55" />
    </g>
  </g>
  <g
     transform="matrix(0.9568244,0,0,0.9477332,-303.49146,-364.66148)"
     id="layer1">
    <path
       d="M 359.41706,389.22836 C 359.41706,390.49121 361.77776,391.5658 362.69891,392.16356 C 363.9683,392.98806 365.01982,393.95822 366.08574,394.99571 C 367.25184,396.12939 367.92266,397.06931 368.92733,398.35828 C 369.51617,399.11406 370.9381,401.81153 371.67792,401.81153 C 372.68104,401.81153 373.50044,401.39242 373.50044,400.35904 C 373.50044,398.9574 369.27079,394.2248 368.23971,393.22166 C 367.10594,392.11685 362.58955,387.93802 360.90827,387.93802 C 360.24097,387.93802 359.41706,388.52066 359.41706,389.22836 L 359.41706,389.22836 L 359.41706,389.22836 z M 319.15535,398.42286 C 319.15535,399.20338 319.67929,399.7132 320.48077,399.7132 C 322.0177,399.7132 322.93799,397.60936 323.7279,396.58423 C 325.25763,394.59857 327.96871,391.75406 330.32221,390.74405 C 331.29246,390.32906 333.73572,389.1143 333.73572,387.93802 C 333.73572,387.35264 333.53916,387.37187 333.40426,386.80847 C 332.42852,386.73014 333.05883,386.48691 332.41017,386.48691 C 329.70784,386.48691 319.15535,395.89715 319.15535,398.42286 L 319.15535,398.42286 L 319.15535,398.42286 z M 334.2327,405.84331 C 334.2327,407.91967 336.17008,409.10008 337.50523,410.40003 C 337.90795,410.79304 341.35728,414.12401 341.35728,414.23258 C 341.35728,415.66033 333.90123,420.09336 333.90123,422.94336 C 333.90123,424.71878 335.12942,426.00774 336.88366,426.00774 C 339.72371,426.00774 344.91204,418.74806 345.83079,418.74806 C 346.52785,418.74806 352.76262,425.71367 353.78367,425.84559 C 356.10925,426.08332 357.76032,425.06645 357.76032,422.77984 C 357.76032,420.21428 350.45723,415.8582 350.30441,414.07043 L 357.09755,407.77813 C 357.44976,407.2106 357.42887,407.27657 357.42887,406.64995 C 357.42887,404.96386 356.66845,403.10049 354.61224,403.10049 C 351.42494,403.10049 348.17583,408.50919 345.83079,410.03726 C 343.74044,408.67546 339.98871,403.10049 337.38078,403.10049 C 335.80038,403.10049 334.2327,404.17234 334.2327,405.84331 L 334.2327,405.84331 L 334.2327,405.84331 z M 363.44141,439.11998 C 364.76738,438.1828 365.60908,437.4806 366.74851,436.37165 C 367.60912,435.53341 372.17503,430.82555 372.17503,429.87875 C 372.17503,428.71484 371.80293,428.10471 370.51802,428.10471 C 369.67082,428.10471 368.2242,430.63866 367.57892,431.37247 C 365.58791,433.63707 363.70923,435.53891 361.14024,437.20302 C 360.32014,437.73344 357.76032,438.85476 357.76032,439.87988 C 357.76032,440.76621 358.18732,441.49315 359.2514,441.49315 C 360.3358,441.49315 362.50883,439.77957 363.44141,439.11998 L 363.44141,439.11998 L 363.44141,439.11998 z M 327.2739,414.39335 C 327.2739,409.45736 329.69416,404.83468 332.28557,402.33509 C 334.25979,400.43051 334.71372,400.02513 337.27198,398.63997 C 342.88307,395.60446 349.40134,396.29704 355.01934,398.9945 C 358.28482,400.5638 360.73584,403.57046 362.42925,406.62109 C 366.21782,413.44379 364.10502,422.12163 358.71336,427.419 C 355.11543,430.95472 350.76555,432.24506 345.99955,432.50202 C 340.72118,431.84792 336.77826,431.16771 332.86594,427.33793 C 329.32234,423.86955 327.2739,419.29085 327.2739,414.39335 L 327.2739,414.39335 L 327.2739,414.39335 z M 328.22679,430.88738 C 329.90384,432.51989 332.38618,434.59212 334.61156,435.6406 C 336.31346,436.44173 341.04658,438.10584 343.34547,438.10584 L 346.65936,438.10584 C 359.28032,438.10584 370.1867,427.29808 370.1867,415.03783 L 370.1867,413.103 C 370.1867,409.49996 368.73458,406.72003 367.72144,404.21082 C 366.76954,401.85413 364.58225,399.33805 362.85538,397.65745 C 359.45924,394.34985 353.35527,390.84162 346.65936,390.84162 C 339.147,390.84162 331.67246,393.63254 326.91042,399.52081 C 324.02774,403.08538 321.47485,408.10106 321.47485,414.39335 C 321.47485,420.53447 323.72536,426.50519 328.22679,430.88738 L 328.22679,430.88738 L 328.22679,430.88738 z M 332.90728,439.87988 C 332.90728,437.93682 330.78278,437.59465 329.49392,436.75092 C 327.04277,435.14728 324.65144,433.07917 322.89707,430.75272 C 322.18703,429.81004 321.07383,427.621 319.81799,427.621 C 318.68872,427.621 318.49258,428.55956 318.49258,429.39505 C 318.49258,430.37345 323.18154,435.50319 324.12583,436.16965 C 325.39761,437.06835 329.8831,441.00944 331.58173,441.00944 C 332.08153,441.00944 332.90728,440.35122 332.90728,439.87988 L 332.90728,439.87988 L 332.90728,439.87988 z"
       id="path32"
       style="fill:#ffffff;fill-opacity:1;stroke:none" />
  </g>
</svg>
